<svg width="303" height="121" viewBox="0 0 303 121" fill="none" xmlns="http://www.w3.org/2000/svg">
<path d="M298.626 17.1427C300.199 18.096 300.452 18.6839 300.493 18.792C300.452 18.9001 300.199 19.488 298.626 20.4413C296.882 21.4987 294.147 22.6063 290.391 23.7077C282.917 25.8996 271.979 27.9046 258.319 29.599C231.033 32.9835 193.266 35.084 151.5 35.084C109.734 35.084 71.9666 32.9835 44.6811 29.599C31.0208 27.9046 20.0832 25.8996 12.6091 23.7077C8.85334 22.6063 6.11823 21.4987 4.37386 20.4413C2.80106 19.488 2.54757 18.9001 2.50735 18.792C2.54757 18.6839 2.80106 18.096 4.37386 17.1427C6.11823 16.0853 8.85334 14.9777 12.6091 13.8763C20.0832 11.6844 31.0208 9.67945 44.6811 7.98504C71.9666 4.60055 109.734 2.5 151.5 2.5C193.266 2.5 231.033 4.60055 258.319 7.98504C271.979 9.67945 282.917 11.6844 290.391 13.8763C294.147 14.9777 296.882 16.0853 298.626 17.1427Z" stroke="#9900FF" stroke-width="5"/>
<path d="M298.626 58.7266C300.199 59.68 300.452 60.2679 300.493 60.376C300.452 60.4841 300.199 61.072 298.626 62.0253C296.882 63.0827 294.147 64.1903 290.391 65.2917C282.917 67.4836 271.979 69.4885 258.319 71.1829C231.033 74.5674 193.266 76.668 151.5 76.668C109.734 76.668 71.9666 74.5674 44.6811 71.1829C31.0208 69.4885 20.0832 67.4836 12.6091 65.2917C8.85334 64.1903 6.11823 63.0827 4.37386 62.0253C2.80106 61.072 2.54757 60.4841 2.50735 60.376C2.54757 60.2679 2.80106 59.68 4.37386 58.7266C6.11823 57.6693 8.85334 56.5617 12.6091 55.4603C20.0832 53.2684 31.0208 51.2634 44.6811 49.569C71.9666 46.1845 109.734 44.084 151.5 44.084C193.266 44.084 231.033 46.1845 258.319 49.569C271.979 51.2634 282.917 53.2684 290.391 55.4603C294.147 56.5617 296.882 57.6693 298.626 58.7266Z" stroke="#9900FF" stroke-width="5"/>
<path d="M298.626 100.311C300.199 101.264 300.452 101.852 300.493 101.96C300.452 102.068 300.199 102.656 298.626 103.609C296.882 104.667 294.147 105.774 290.391 106.876C282.917 109.068 271.979 111.073 258.319 112.767C231.033 116.151 193.266 118.252 151.5 118.252C109.734 118.252 71.9666 116.151 44.6811 112.767C31.0208 111.073 20.0832 109.068 12.6091 106.876C8.85334 105.774 6.11823 104.667 4.37386 103.609C2.80106 102.656 2.54757 102.068 2.50735 101.96C2.54757 101.852 2.80106 101.264 4.37386 100.311C6.11823 99.2532 8.85334 98.1457 12.6091 97.0442C20.0832 94.8524 31.0208 92.8474 44.6811 91.153C71.9666 87.7685 109.734 85.668 151.5 85.668C193.266 85.668 231.033 87.7685 258.319 91.153C271.979 92.8474 282.917 94.8524 290.391 97.0442C294.147 98.1457 296.882 99.2532 298.626 100.311Z" stroke="#9900FF" stroke-width="5"/>
</svg>
