<svg width="190" height="190" viewBox="0 0 190 190" fill="none" xmlns="http://www.w3.org/2000/svg">
<circle cx="94.917" cy="94.7168" r="94.5" fill="#9900FF"/>
<path d="M96.6431 27.2052C97.4241 26.4242 97.4241 25.1579 96.6431 24.3768L83.9151 11.6489C83.1341 10.8678 81.8677 10.8678 81.0867 11.6489C80.3057 12.4299 80.3057 13.6963 81.0867 14.4773L92.4004 25.791L81.0867 37.1047C80.3057 37.8858 80.3057 39.1521 81.0867 39.9332C81.8677 40.7142 83.1341 40.7142 83.9151 39.9332L96.6431 27.2052ZM95.2288 162.266C58.0945 162.266 27.9912 132.163 27.9912 95.0286H23.9912C23.9912 134.372 55.8854 166.266 95.2288 166.266V162.266ZM27.9912 95.0286C27.9912 57.8943 58.0945 27.791 95.2288 27.791V23.791C55.8854 23.791 23.9912 55.6852 23.9912 95.0286H27.9912Z" fill="black"/>
<path d="M96.643 61.5119C97.4241 60.7308 97.4241 59.4645 96.643 58.6834L83.9151 45.9555C83.134 45.1745 81.8677 45.1745 81.0867 45.9555C80.3056 46.7366 80.3056 48.0029 81.0867 48.7839L92.4004 60.0977L81.0867 71.4114C80.3056 72.1924 80.3056 73.4587 81.0867 74.2398C81.8677 75.0208 83.134 75.0208 83.9151 74.2398L96.643 61.5119ZM95.2288 127.335C77.4032 127.335 62.9219 112.748 62.9219 94.7165H58.9219C58.9219 114.923 75.16 131.335 95.2288 131.335V127.335ZM62.9219 94.7165C62.9219 76.6845 77.4032 62.0977 95.2288 62.0977V58.0977C75.16 58.0977 58.9219 74.5096 58.9219 94.7165H62.9219Z" fill="black"/>
<path d="M93.8143 147.258C93.0332 148.039 93.0332 149.305 93.8143 150.086L106.542 162.814C107.323 163.595 108.59 163.595 109.371 162.814C110.152 162.033 110.152 160.767 109.371 159.986L98.0569 148.672L109.371 137.358C110.152 136.577 110.152 135.311 109.371 134.53C108.59 133.749 107.323 133.749 106.542 134.53L93.8143 147.258ZM95.2285 43.3847C123.75 43.3847 146.872 66.5064 146.872 95.0283L150.872 95.0283C150.872 64.2972 125.96 39.3847 95.2285 39.3847L95.2285 43.3847ZM146.872 95.0283C146.872 123.55 123.75 146.672 95.2285 146.672L95.2285 150.672C125.96 150.672 150.872 125.759 150.872 95.0283L146.872 95.0283Z" fill="black"/>
<circle cx="95.2284" cy="95.0292" r="11.8515" fill="black"/>
</svg>
