<svg width="480" height="944" viewBox="0 0 480 944" fill="none" xmlns="http://www.w3.org/2000/svg">
<path d="M95.5654 945H0V0H238.421C308.042 0 360.587 21.9359 396.054 65.8078C432.179 108.802 450.241 171.539 450.241 254.018C450.241 309.297 442.031 354.923 425.611 390.898C409.847 426.873 385.545 456.706 352.705 480.397C384.232 497.946 405.906 519.881 417.729 546.205C429.552 571.65 436.12 608.941 437.433 658.078L443.344 834.443C444.001 859.888 446.3 878.753 450.241 891.037C454.182 903.322 464.034 914.289 479.797 923.941V945H361.572C358.288 931.838 355.332 915.167 352.705 894.986C350.735 873.927 349.093 851.991 347.779 829.178C346.466 806.365 345.48 784.429 344.823 763.37C344.823 741.434 344.823 723.008 344.823 708.092C344.823 688.788 343.838 669.046 341.868 648.865C339.897 628.684 334.971 610.696 327.09 594.902C319.865 578.231 309.028 565.07 294.578 555.418C280.785 544.888 262.066 539.624 238.421 539.624H95.5654V945ZM95.5654 430.383H228.569C271.918 430.383 303.445 416.344 323.149 388.266C342.853 360.188 352.705 319.826 352.705 267.18C352.705 212.779 343.51 172.855 325.119 147.409C306.729 121.964 279.8 109.241 244.332 109.241H95.5654V430.383Z" fill="#9900FF"/>
</svg>
