<svg width="241" height="237" viewBox="0 0 241 237" fill="none" xmlns="http://www.w3.org/2000/svg">
<path d="M0.201172 118.661C0.201172 102.997 2.83926 88.0443 8.11538 73.8038C13.3915 59.5633 21.1408 47.0316 31.3633 36.2089C41.5857 25.3861 54.1166 16.8418 68.9556 10.5759C83.7947 4.02531 100.777 0.75 119.903 0.75C139.029 0.75 156.012 4.02531 170.851 10.5759C186.019 16.8418 198.715 25.3861 208.938 36.2089C219.16 47.0316 226.909 59.5633 232.186 73.8038C237.462 88.0443 240.1 102.997 240.1 118.661C240.1 134.326 237.462 149.278 232.186 163.519C226.909 177.759 219.16 190.433 208.938 201.541C199.045 212.364 186.514 221.051 171.345 227.601C156.506 233.867 139.359 237 119.903 237C100.777 237 83.7947 233.867 68.9556 227.601C54.1166 221.051 41.5857 212.364 31.3633 201.541C21.1408 190.718 13.3915 178.187 8.11538 163.946C2.83926 149.706 0.201172 134.611 0.201172 118.661ZM44.7184 118.661C44.7184 129.484 46.0375 140.022 48.6755 150.275C51.6433 160.244 56.0951 169.358 62.0307 177.617C67.9663 185.592 75.7156 192 85.2786 196.842C94.8415 201.683 106.383 204.104 119.903 204.104C133.093 204.104 144.47 201.683 154.033 196.842C163.596 191.715 171.51 185.165 177.776 177.19C184.041 168.93 188.493 159.674 191.131 149.421C194.099 139.168 195.582 128.915 195.582 118.661C195.582 108.123 194.099 97.8702 191.131 87.9019C188.493 77.6487 184.041 68.5348 177.776 60.5601C171.51 52.5854 163.596 46.1772 154.033 41.3354C144.47 36.2088 133.093 33.6456 119.903 33.6456C106.713 33.6456 95.3362 36.0664 85.7732 40.9082C76.54 45.75 68.7907 52.1582 62.5254 60.1329C56.5897 67.8228 52.138 76.7943 49.1702 87.0474C46.2024 97.3006 44.7184 107.839 44.7184 118.661Z" fill="black"/>
</svg>
