<svg width="323" height="299" viewBox="0 0 323 299" fill="none" xmlns="http://www.w3.org/2000/svg">
<path d="M323 299H256.277V120.045C256.277 107.818 255.013 97.0731 252.486 87.8104C249.959 78.1772 245.409 70.2113 238.838 63.9126C232.772 57.2435 224.179 52.2416 213.059 48.9071C201.938 45.5725 188.038 43.9052 171.357 43.9052C153.665 43.9052 138.248 46.4988 125.106 51.6859C111.963 56.873 101.095 63.9127 92.5023 72.8049C83.9092 81.697 77.338 92.0713 72.7887 103.928C68.7449 115.413 66.723 127.64 66.723 140.608V299H0V8.33644H62.9319V49.4628H64.4484C95.7879 16.4876 135.721 0 184.246 0C229.739 0 264.112 8.70693 287.364 26.1208C311.121 43.5347 323 68.544 323 101.149V299Z" fill="black"/>
</svg>
