<svg width="647" height="299" viewBox="0 0 647 299" fill="none" xmlns="http://www.w3.org/2000/svg">
<path d="M637.869 201.852C630.042 216.604 616.998 230.097 598.736 242.33C580.474 254.204 557.429 264.458 529.601 273.094C502.642 281.369 471.771 287.666 436.986 291.984C402.201 296.661 364.807 299 324.804 299C272.627 299 226.102 295.402 185.23 288.206C145.227 281.01 111.312 271.115 83.4839 258.522C56.5255 245.928 35.6546 230.996 20.871 213.726C6.95699 196.095 0 177.205 0 157.056C0 134.388 6.52218 113.519 19.5665 94.4495C33.4805 75.3797 54.3515 58.8285 82.1794 44.796C110.877 30.7636 146.532 19.7894 189.143 11.8737C231.755 3.95788 282.193 0 340.458 0C396.983 0 444.812 4.4976 483.946 13.4928C523.079 22.488 554.385 34.5415 577.865 49.6534C602.214 64.7654 619.607 82.3959 630.042 102.545C641.347 122.335 647 143.023 647 164.612H122.617C122.617 194.116 140.009 216.964 174.794 233.155C210.449 249.347 263.496 257.442 333.935 257.442C354.806 257.442 375.677 256.183 396.548 253.664C418.289 250.786 437.855 246.828 455.248 241.791C473.51 236.753 488.728 230.996 500.903 224.52C513.078 217.684 520.47 210.128 523.079 201.852H637.869ZM528.296 126.832C521.339 99.8466 502.208 79.1577 470.901 64.7654C439.595 50.0133 390.896 42.6372 324.804 42.6372C294.368 42.6372 266.54 44.9759 241.321 49.6534C216.971 53.9711 196.1 59.9079 178.708 67.4639C161.315 75.0199 147.401 84.0151 136.966 94.4495C127.4 104.524 122.617 115.318 122.617 126.832H528.296Z" fill="black"/>
</svg>
