<svg width="240" height="473" viewBox="0 0 240 473" fill="none" xmlns="http://www.w3.org/2000/svg">
<path d="M240 473H190.444V190.203C190.444 170.881 189.505 153.901 187.628 139.264C185.751 124.041 182.372 111.453 177.491 101.499C172.986 90.96 166.604 83.0558 158.345 77.7862C150.085 72.5167 139.761 69.882 127.372 69.882C114.232 69.882 102.781 73.9805 93.02 82.1775C83.2589 90.3745 75.1872 101.499 68.8049 115.551C62.4226 129.603 57.5421 145.997 54.1632 164.733C51.1598 182.884 49.6581 202.205 49.6581 222.698V473H0.101562V13.6738H46.8424V78.6645H47.9687C71.2452 26.5548 100.904 0.5 136.945 0.5C170.734 0.5 196.263 14.2593 213.533 41.7779C231.178 69.2964 240 108.818 240 160.342V473Z" fill="black"/>
</svg>
