<svg width="121" height="237" viewBox="0 0 121 237" fill="none" xmlns="http://www.w3.org/2000/svg">
<path d="M6.23301 74.8354C7.20623 25.2785 24.7242 0.5 58.7869 0.5C64.6262 0.5 70.3033 1.63923 75.8182 3.91772C81.4953 6.1962 86.6048 9.89874 91.1464 15.0253C95.6881 19.8671 99.3377 26.2753 102.095 34.25C104.853 42.2247 106.231 51.7658 106.231 62.8734V191.465C106.231 200.294 108.502 204.709 113.044 204.709C113.855 204.709 114.828 204.566 115.963 204.282C117.261 203.997 118.64 203.57 120.1 203V230.342C118.153 231.766 116.126 232.763 114.017 233.332C112.071 234.187 110.043 234.614 107.934 234.614C100.635 234.614 95.2015 231.908 91.633 226.497C88.2267 221.085 86.3614 212.399 86.037 200.437C73.8718 224.646 58.5436 236.75 40.0524 236.75C34.3753 236.75 29.1037 235.183 24.2376 232.051C19.3715 229.202 15.1542 225.073 11.5857 219.661C8.01727 213.965 5.17872 207.13 3.07008 199.155C1.12364 191.18 0.150391 182.209 0.150391 172.24C0.150391 152.589 3.31341 136.782 9.63934 124.82C15.9653 112.573 25.2108 105.168 37.3761 102.604L75.0883 94.4873C81.9008 93.3481 85.3071 84.519 85.3071 68C85.3071 43.7911 75.3316 31.6867 55.3806 31.6867C46.2972 31.6867 39.4036 35.1044 34.6997 41.9399C29.9958 48.7753 27.1572 59.7405 26.184 74.8354H6.23301ZM84.5772 116.275C83.1173 118.839 79.9544 121.259 75.0883 123.538C72.8175 124.392 69.4923 125.389 65.1128 126.528C60.8955 127.668 55.6239 128.949 49.298 130.373C39.8902 132.652 32.9966 136.782 28.6171 142.763C24.2376 148.744 22.0478 156.718 22.0478 166.687C22.0478 178.933 23.8321 188.475 27.4006 195.31C31.1312 202.146 37.1327 205.563 45.4051 205.563C49.6224 205.563 54.0019 204.424 58.5435 202.146C63.2474 199.582 67.4647 196.165 71.1954 191.892C75.0883 187.335 78.2512 181.782 80.6843 175.231C83.2795 168.68 84.5772 161.275 84.5772 153.016V116.275Z" fill="#9900FF"/>
</svg>
