<svg width="222" height="154" viewBox="0 0 222 154" fill="none" xmlns="http://www.w3.org/2000/svg">
<path d="M0 76.8608C0 66.6498 2.44124 56.903 7.32371 47.6203C12.2062 38.3376 19.3773 30.1688 28.8371 23.1139C38.2969 16.0591 49.8928 10.4895 63.6247 6.40507C77.3567 2.13503 93.0722 0 110.771 0C128.47 0 144.186 2.13503 157.918 6.40507C171.955 10.4895 183.703 16.0591 193.163 23.1139C202.623 30.1688 209.794 38.3376 214.676 47.6203C219.559 56.903 222 66.6498 222 76.8608C222 87.0717 219.559 96.8186 214.676 106.101C209.794 115.384 202.623 123.646 193.163 130.886C184.008 137.941 172.412 143.603 158.375 147.873C144.643 151.958 128.775 154 110.771 154C93.0722 154 77.3567 151.958 63.6247 147.873C49.8928 143.603 38.2969 137.941 28.8371 130.886C19.3773 123.831 12.2062 115.662 7.32371 106.38C2.44124 97.097 0 87.2574 0 76.8608ZM41.1959 76.8608C41.1959 83.9156 42.4165 90.7848 44.8577 97.4684C47.6041 103.966 51.7237 109.907 57.2165 115.291C62.7093 120.489 69.8804 124.667 78.7299 127.823C87.5794 130.979 98.2598 132.557 110.771 132.557C122.977 132.557 133.505 130.979 142.355 127.823C151.204 124.481 158.528 120.211 164.326 115.013C170.124 109.629 174.243 103.595 176.685 96.9114C179.431 90.2278 180.804 83.5443 180.804 76.8608C180.804 69.9916 179.431 63.308 176.685 56.8101C174.243 50.1266 170.124 44.1857 164.326 38.9873C158.528 33.789 151.204 29.6118 142.355 26.4557C133.505 23.1139 122.977 21.443 110.771 21.443C98.5649 21.443 88.0371 23.0211 79.1876 26.1772C70.6433 29.3333 63.4722 33.5106 57.6742 38.7089C52.1814 43.7215 48.0619 49.5696 45.3155 56.2532C42.5691 62.9367 41.1959 69.8059 41.1959 76.8608Z" fill="black"/>
</svg>
