<svg width="216" height="151" viewBox="0 0 216 151" fill="none" xmlns="http://www.w3.org/2000/svg">
<path d="M11.2576 47.5118C13.0588 15.8373 45.4807 0 108.523 0C119.331 0 129.838 0.728145 140.045 2.18445C150.552 3.64075 160.008 6.00724 168.414 9.28391C176.819 12.3785 183.574 16.4744 188.677 21.5714C193.781 26.6685 196.333 32.7667 196.333 39.8662V122.056C196.333 127.699 200.535 130.521 208.941 130.521C210.442 130.521 212.243 130.43 214.345 130.248C216.746 130.066 219.298 129.793 222 129.429V146.904C218.398 147.814 214.645 148.451 210.742 148.816C207.14 149.362 203.387 149.635 199.485 149.635C185.976 149.635 175.919 147.905 169.314 144.447C163.01 140.988 159.558 135.436 158.957 127.79C136.442 143.263 108.073 151 73.8499 151C63.3428 151 53.5862 149.999 44.5801 147.996C35.574 146.176 27.7688 143.536 21.1643 140.078C14.5598 136.437 9.30629 132.068 5.40365 126.971C1.80122 121.874 0 116.14 0 109.769C0 97.2079 5.85396 87.1049 17.5619 79.4593C29.2698 71.6317 46.3813 66.8987 68.8966 65.2604L138.694 60.0723C151.302 59.3442 157.606 53.701 157.606 43.1429C157.606 27.6697 139.144 19.9331 102.219 19.9331C85.4077 19.9331 72.6491 22.1175 63.9432 26.4864C55.2373 30.8553 49.9838 37.8638 48.1825 47.5118H11.2576ZM156.256 73.9982C153.554 75.6365 147.7 77.1838 138.694 78.6401C134.491 79.1862 128.337 79.8234 120.231 80.5515C112.426 81.2797 102.669 82.0988 90.9614 83.009C73.5497 84.4653 60.7911 87.1049 52.6856 90.9277C44.5801 94.7504 40.5274 99.8475 40.5274 106.219C40.5274 114.046 43.8296 120.145 50.4341 124.514C57.3387 128.882 68.4462 131.067 83.7566 131.067C91.5619 131.067 99.6674 130.339 108.073 128.882C116.779 127.244 124.584 125.06 131.489 122.329C138.694 119.417 144.548 115.867 149.051 111.68C153.854 107.493 156.256 102.76 156.256 97.481V73.9982Z" fill="black"/>
</svg>
