<svg width="303" height="664" viewBox="0 0 303 664" fill="none" xmlns="http://www.w3.org/2000/svg">
<path d="M267.731 99.9961H244V0H303V99.9961H279.269V662H267.731V99.9961Z" fill="black"/>
<path d="M213.624 229.338C211.51 139.684 205.61 94.8572 195.923 94.8572C192.225 94.8572 189.054 101.661 186.413 115.269C183.859 128.077 181.745 145.688 180.072 168.101C178.487 190.515 177.342 216.13 176.638 244.948C175.933 272.964 175.581 301.782 175.581 331.4C175.581 413.049 177.298 473.885 180.733 513.91C184.167 553.133 189.187 572.745 195.791 572.745C198.169 572.745 200.326 568.743 202.264 560.738C204.289 552.733 206.05 541.926 207.548 528.318C209.133 514.71 210.41 499.101 211.378 481.49C212.435 463.079 213.184 443.867 213.624 423.855H224.852C223.531 501.502 220.317 561.138 215.209 602.763C210.101 643.588 203.541 664 195.527 664C190.331 664 185.708 655.995 181.657 639.986C177.694 623.175 174.348 600.762 171.618 572.745C168.888 544.728 166.775 511.508 165.278 473.085C163.869 434.662 163.164 393.437 163.164 349.41C163.164 300.581 163.869 254.954 165.278 212.528C166.687 170.102 168.8 133.28 171.618 102.062C174.436 70.0422 178.003 45.2273 182.318 27.6167C186.721 9.20557 191.828 0 197.641 0C201.603 0 205.17 5.60335 208.34 16.8101C211.598 28.0168 214.416 43.6263 216.794 63.6384C219.172 83.6504 221.021 107.665 222.342 135.682C223.751 163.699 224.588 194.917 224.852 229.338H213.624Z" fill="black"/>
<path d="M132.347 662V197.839H131.95L97.653 602.395V662H86V0H97.653V457.82H98.0502L132.347 57.069V0H144V662H132.347Z" fill="black"/>
<path d="M51.4259 656.042V94.0786H30.7766C29.6367 312.341 26.6117 463.703 21.7015 548.165C16.7912 630.954 9.55741 668.586 0 661.059V556.946C7.54071 561.963 12.714 518.478 15.5198 426.49C18.3257 334.502 20.1232 192.339 20.9123 0H63V656.042H51.4259Z" fill="black"/>
</svg>
