<svg width="221" height="219" viewBox="0 0 221 219" fill="none" xmlns="http://www.w3.org/2000/svg">
<rect x="2" y="3.18555" width="216.228" height="214.206" fill="#9900FF"/>
<path d="M111.375 32.8163C112.07 32.1217 112.07 30.9955 111.375 30.3009L100.056 18.9817C99.3614 18.2871 98.2352 18.2871 97.5406 18.9817C96.846 19.6763 96.846 20.8024 97.5406 21.4971L107.602 31.5586L97.5406 41.6201C96.846 42.3147 96.846 43.4409 97.5406 44.1355C98.2352 44.8301 99.3614 44.8301 100.056 44.1355L111.375 32.8163ZM110.118 187.242C67.4914 187.242 32.9447 152.785 32.9447 110.29H29.3874C29.3874 154.759 65.5362 190.8 110.118 190.8V187.242ZM32.9447 110.29C32.9447 67.7948 67.4914 33.3372 110.118 33.3372V29.7799C65.5362 29.7799 29.3874 65.8208 29.3874 110.29H32.9447Z" fill="black"/>
<path d="M108.854 174.285C108.159 174.98 108.159 176.106 108.854 176.801L120.173 188.12C120.868 188.814 121.994 188.814 122.688 188.12C123.383 187.425 123.383 186.299 122.688 185.605L112.627 175.543L122.688 165.481C123.383 164.787 123.383 163.661 122.688 162.966C121.994 162.271 120.868 162.271 120.173 162.966L108.854 174.285ZM110.112 46.8121C145.274 46.8121 173.77 75.236 173.77 110.288L177.327 110.288C177.327 73.262 147.229 43.2548 110.112 43.2548L110.112 46.8121ZM173.77 110.288C173.77 145.34 145.274 173.764 110.112 173.764L110.112 177.322C147.229 177.322 177.327 147.314 177.327 110.288L173.77 110.288Z" fill="black"/>
<path d="M2.71177 3.18872L218.775 217.562" stroke="black" stroke-width="3.55729"/>
<line y1="-1.77865" x2="303.861" y2="-1.77865" transform="matrix(-0.70926 0.704947 0.706926 0.707288 218.227 3.18555)" stroke="black" stroke-width="3.55729"/>
</svg>
