<svg width="179" height="302" viewBox="0 0 179 302" fill="none" xmlns="http://www.w3.org/2000/svg">
<path d="M0 0H107.002C115.753 0 124.107 1.53983 132.062 4.61949C140.018 7.69916 147.045 12.3187 153.144 18.478C159.244 24.6373 164.017 32.529 167.464 42.153C171.177 51.392 173.033 62.5557 173.033 75.6443C173.033 105.286 162.293 127.806 140.813 143.205C166.271 153.214 179 176.311 179 212.497C179 227.511 176.878 240.599 172.636 251.763C168.393 262.927 162.691 272.358 155.531 280.057C148.371 287.372 140.15 292.953 130.869 296.803C121.587 300.268 112.041 302 102.229 302H0V0ZM34.6067 128.191H91.4889C107.665 128.191 119.333 124.534 126.493 117.22C133.653 109.521 137.233 97.9719 137.233 82.5736C137.233 54.8566 122.781 40.9981 93.8755 40.9981H34.6067V128.191ZM34.6067 261.579H98.6489C113.764 261.579 124.902 257.152 132.062 248.298C139.222 239.059 142.802 226.933 142.802 211.92C142.802 181.123 126.626 165.725 94.2733 165.725H34.6067V261.579Z" fill="black"/>
</svg>
