<svg width="310" height="149" viewBox="0 0 310 149" fill="none" xmlns="http://www.w3.org/2000/svg">
<path d="M63.0022 2.48334V62.9111H131.016C150.585 62.9111 164.904 61.3475 173.972 58.2204C183.518 55.0932 189.246 50.7704 191.155 45.2519L198.314 20.4185C200.701 12.6926 207.86 7.35802 219.792 4.41481C231.724 1.4716 247.475 0 267.044 0C282.317 0 295.443 0.367905 306.42 1.10371V21.2463C296.875 20.6944 288.761 20.4185 282.079 20.4185C272.055 20.4185 264.896 21.2463 260.601 22.9018C256.305 24.5574 253.441 27.5006 252.009 31.7315L246.998 47.4593C243.179 59.9679 225.042 68.2457 192.587 72.2926V72.5685C204.042 73.6722 213.349 75.2358 220.508 77.2593C228.145 79.0988 234.35 81.3062 239.122 83.8815C243.895 86.2728 247.236 88.9401 249.145 91.8833C251.532 94.6426 253.203 97.4938 254.157 100.437L259.885 118.924C261.316 123.155 264.18 125.822 268.476 126.926C272.771 128.03 279.692 128.581 289.238 128.581C295.92 128.581 302.841 128.306 310 127.754V147.62C300.454 148.54 288.283 149 273.487 149C250.577 149 233.156 147.62 221.224 144.861C209.292 142.102 202.371 136.215 200.462 127.202L193.303 100.713C191.871 94.8266 185.905 90.4117 175.404 87.4685C165.381 84.5253 152.256 83.0537 136.028 83.0537H63.0022V146.793H0V2.48334H63.0022Z" fill="black"/>
</svg>
