<svg width="217" height="215" viewBox="0 0 217 215" fill="none" xmlns="http://www.w3.org/2000/svg">
<path d="M61.9121 213.652V199.151H61.8576L57.1517 211.79V213.652H55.5527V192.97H57.1517V207.273H57.2062L61.9121 194.753V192.97H63.5111V213.652H61.9121ZM57.6786 184.689C57.8724 186.776 58.4902 187.819 59.5319 187.819C60.5736 187.819 61.1914 186.776 61.3852 184.689H62.2755C62.1786 188.282 61.2641 190.078 59.5319 190.078C57.7997 190.078 56.8852 188.282 56.7883 184.689H57.6786Z" fill="white"/>
<path d="M53.178 207.152C53.0689 208.235 52.8872 209.226 52.6329 210.124C52.3785 210.995 52.0575 211.748 51.6699 212.382C51.2944 212.99 50.8643 213.452 50.3798 213.769C49.8953 214.112 49.3744 214.284 48.8172 214.284C48.0904 214.284 47.4424 214.02 46.8731 213.491C46.3159 212.963 45.8434 212.237 45.4558 211.312C45.0803 210.388 44.7896 209.292 44.5837 208.024C44.3899 206.73 44.293 205.343 44.293 203.864C44.293 202.2 44.3838 200.668 44.5655 199.268C44.7593 197.868 45.05 196.653 45.4377 195.623C45.8374 194.592 46.334 193.787 46.9276 193.206C47.5211 192.625 48.2237 192.334 49.0353 192.334C49.8226 192.334 50.4888 192.664 51.0339 193.325C51.579 193.985 52.0151 194.87 52.3421 195.979C52.6813 197.088 52.9236 198.383 53.0689 199.862C53.2264 201.315 53.3051 202.833 53.3051 204.418H46.0009C46.0009 206.584 46.2432 208.262 46.7277 209.45C47.2243 210.639 47.9632 211.233 48.9444 211.233C49.2351 211.233 49.5258 211.141 49.8166 210.956C50.1194 210.744 50.3919 210.454 50.6342 210.084C50.8886 209.714 51.1005 209.292 51.2701 208.816C51.4397 208.314 51.5427 207.76 51.579 207.152H53.178ZM51.6517 201.645C51.5548 199.664 51.2883 198.145 50.8522 197.088C50.4162 196.006 49.7378 195.464 48.8172 195.464C48.3933 195.464 48.0056 195.636 47.6544 195.979C47.3152 196.296 47.0245 196.732 46.7822 197.287C46.54 197.841 46.3461 198.502 46.2008 199.268C46.0675 200.007 46.0009 200.8 46.0009 201.645H51.6517Z" fill="white"/>
<path d="M36.2318 201.608H38.0852C38.7272 201.608 39.1814 201.383 39.4479 200.934C39.7144 200.485 39.8476 199.746 39.8476 198.715C39.8476 197.659 39.6599 196.827 39.2844 196.219C38.9089 195.612 38.3638 195.308 37.6491 195.308C36.995 195.308 36.4802 195.625 36.1047 196.259C35.7413 196.893 35.5293 197.804 35.4687 198.993H33.9425C33.9788 197.831 34.0999 196.827 34.3059 195.982C34.5239 195.136 34.7964 194.45 35.1235 193.921C35.4627 193.367 35.8563 192.957 36.3045 192.693C36.7648 192.429 37.2615 192.297 37.7944 192.297C38.2305 192.297 38.6666 192.416 39.1027 192.653C39.5508 192.865 39.9445 193.208 40.2837 193.684C40.635 194.159 40.9196 194.767 41.1377 195.506C41.3557 196.246 41.4647 197.131 41.4647 198.161C41.4647 200.168 41.0165 201.674 40.1202 202.678V202.717C40.7016 203.034 41.1256 203.602 41.392 204.421C41.6706 205.24 41.8099 206.243 41.8099 207.432C41.8099 208.621 41.6888 209.651 41.4466 210.522C41.2164 211.368 40.9075 212.068 40.5199 212.622C40.1444 213.177 39.7083 213.573 39.2117 213.811C38.7272 214.075 38.2245 214.207 37.7036 214.207C36.4923 214.207 35.5414 213.666 34.851 212.583C34.1605 211.473 33.7668 209.717 33.6699 207.313H35.2325C35.3052 208.66 35.5414 209.651 35.9411 210.285C36.353 210.919 36.9586 211.236 37.7581 211.236C38.5212 211.236 39.1087 210.919 39.5206 210.285C39.9445 209.651 40.1565 208.779 40.1565 207.67C40.1565 206.534 39.999 205.702 39.6841 205.174C39.3813 204.645 38.8725 204.381 38.1578 204.381H36.2318V201.608Z" fill="white"/>
<path d="M30.9535 192.936V213.657H29.3728V205.337H27.0289C26.6413 205.337 26.3142 205.535 26.0477 205.931C25.7933 206.301 25.6419 206.895 25.5935 207.714L25.4299 210.844C25.3694 212.086 25.1937 212.918 24.903 213.34C24.6123 213.763 24.1641 213.974 23.5585 213.974C23.4131 213.974 23.2677 213.948 23.1224 213.895C22.9891 213.869 22.8559 213.829 22.7227 213.776V210.963C22.8801 211.042 23.0376 211.082 23.1951 211.082C23.4616 211.082 23.6433 210.976 23.7402 210.765C23.8492 210.554 23.9219 210.105 23.9582 209.418L24.049 207.516C24.1217 206.037 24.5457 204.954 25.3209 204.267C24.0127 203.475 23.3586 201.665 23.3586 198.839C23.3586 196.911 23.6433 195.445 24.2126 194.441C24.7819 193.437 25.5753 192.936 26.5928 192.936H30.9535ZM29.3728 195.749H26.5565C25.5147 195.749 24.9939 196.845 24.9939 199.037C24.9939 200.305 25.1332 201.216 25.4118 201.771C25.7025 202.299 26.1325 202.563 26.7018 202.563H29.3728V195.749Z" fill="white"/>
<path d="M11.8633 192.936H16.7509C17.1507 192.936 17.5322 193.041 17.8956 193.253C18.259 193.464 18.58 193.781 18.8586 194.203C19.1372 194.626 19.3553 195.168 19.5127 195.828C19.6823 196.462 19.7671 197.228 19.7671 198.126C19.7671 200.16 19.2765 201.705 18.2954 202.761C19.4582 203.448 20.0396 205.033 20.0396 207.516C20.0396 208.546 19.9427 209.444 19.7489 210.21C19.5551 210.976 19.2947 211.623 18.9676 212.152C18.6406 212.653 18.2651 213.036 17.8411 213.301C17.4172 213.538 16.9811 213.657 16.5329 213.657H11.8633V192.936ZM13.444 201.731H16.0423C16.7812 201.731 17.3142 201.48 17.6412 200.979C17.9683 200.45 18.1318 199.658 18.1318 198.601C18.1318 196.7 17.4717 195.749 16.1513 195.749H13.444V201.731ZM13.444 210.884H16.3694C17.0598 210.884 17.5686 210.58 17.8956 209.972C18.2227 209.339 18.3862 208.507 18.3862 207.476C18.3862 205.363 17.6473 204.307 16.1695 204.307H13.444V210.884Z" fill="white"/>
<path d="M7.74942 199.902C7.4587 196.943 6.64712 195.464 5.31468 195.464C4.80593 195.464 4.36985 195.689 4.00646 196.138C3.65518 196.56 3.36447 197.141 3.13432 197.881C2.91628 198.62 2.75881 199.466 2.6619 200.417C2.565 201.341 2.51655 202.292 2.51655 203.269C2.51655 205.964 2.75275 207.971 3.22516 209.292C3.69758 210.586 4.38802 211.233 5.29651 211.233C5.62356 211.233 5.92034 211.101 6.18682 210.837C6.46543 210.573 6.70769 210.216 6.91361 209.767C7.13165 209.318 7.30729 208.803 7.44053 208.222C7.58589 207.614 7.68885 206.98 7.74942 206.32H9.29385C9.11215 208.882 8.67002 210.85 7.96746 212.224C7.26489 213.571 6.36247 214.244 5.26017 214.244C4.5455 214.244 3.90956 213.98 3.35235 213.452C2.80726 212.897 2.34696 212.158 1.97145 211.233C1.59595 210.309 1.30523 209.212 1.09931 207.945C0.905499 206.677 0.808594 205.316 0.808594 203.864C0.808594 202.252 0.905499 200.747 1.09931 199.347C1.29312 197.947 1.58383 196.732 1.97145 195.702C2.35907 194.645 2.84966 193.826 3.4432 193.245C4.04886 192.638 4.75142 192.334 5.55089 192.334C6.09598 192.334 6.58656 192.519 7.02263 192.889C7.47082 193.258 7.85844 193.774 8.18549 194.434C8.51255 195.094 8.76692 195.887 8.94862 196.811C9.14243 197.736 9.25751 198.766 9.29385 199.902H7.74942Z" fill="white"/>
<path d="M216.401 166.897H214.347L212.003 159.092L209.714 166.897H207.697L211.022 156.239L207.861 146.176H209.896L212.094 153.466L214.311 146.176H216.255L213.057 156.239L216.401 166.897Z" fill="white"/>
<path d="M205.483 166.897H203.902V146.176H205.483V166.897ZM196.834 146.176H198.433V154.14H199.287C200.426 154.14 201.292 154.681 201.885 155.764C202.491 156.821 202.794 158.339 202.794 160.32C202.794 161.377 202.697 162.315 202.503 163.133C202.321 163.952 202.073 164.639 201.758 165.194C201.443 165.748 201.068 166.171 200.631 166.462C200.207 166.752 199.759 166.897 199.287 166.897H196.834V146.176ZM198.433 164.124H199.123C199.79 164.124 200.292 163.794 200.631 163.133C200.971 162.447 201.14 161.535 201.14 160.4C201.14 159.264 200.965 158.405 200.613 157.824C200.262 157.217 199.699 156.913 198.923 156.913H198.433V164.124Z" fill="white"/>
<path d="M194.139 166.897H192.54V157.785H187.997V166.897H186.398V146.176H187.997V154.734H192.54V146.176H194.139V166.897Z" fill="white"/>
<path d="M183.24 166.897H181.641V157.785H177.099V166.897H175.5V146.176H177.099V154.734H181.641V146.176H183.24V166.897Z" fill="white"/>
<path d="M164.244 156.521C164.244 155.069 164.341 153.682 164.535 152.361C164.729 151.04 165.013 149.878 165.389 148.874C165.764 147.871 166.225 147.078 166.77 146.497C167.315 145.89 167.939 145.586 168.641 145.586C169.344 145.586 169.968 145.89 170.513 146.497C171.07 147.078 171.536 147.871 171.912 148.874C172.287 149.878 172.572 151.04 172.766 152.361C172.96 153.682 173.056 155.069 173.056 156.521C173.056 157.974 172.96 159.361 172.766 160.681C172.572 162.002 172.287 163.178 171.912 164.208C171.548 165.211 171.088 166.017 170.531 166.625C169.986 167.206 169.356 167.496 168.641 167.496C167.939 167.496 167.315 167.206 166.77 166.625C166.225 166.017 165.764 165.211 165.389 164.208C165.013 163.204 164.729 162.042 164.535 160.721C164.341 159.4 164.244 158 164.244 156.521ZM165.879 156.521C165.879 157.525 165.928 158.502 166.025 159.453C166.134 160.378 166.297 161.223 166.515 161.989C166.733 162.729 167.018 163.323 167.369 163.772C167.721 164.221 168.145 164.445 168.641 164.445C169.126 164.445 169.544 164.221 169.895 163.772C170.246 163.296 170.537 162.689 170.767 161.949C170.997 161.183 171.161 160.325 171.258 159.374C171.367 158.423 171.421 157.472 171.421 156.521C171.421 155.544 171.367 154.593 171.258 153.669C171.161 152.718 170.997 151.872 170.767 151.133C170.537 150.393 170.246 149.799 169.895 149.35C169.544 148.874 169.126 148.637 168.641 148.637C168.157 148.637 167.739 148.861 167.387 149.31C167.048 149.759 166.764 150.354 166.534 151.093C166.315 151.806 166.152 152.638 166.043 153.589C165.934 154.54 165.879 155.518 165.879 156.521Z" fill="white"/>
<path d="M153.77 146.18H155.278V149.112H155.314C155.992 146.761 156.937 145.586 158.148 145.586C158.815 145.586 159.396 145.876 159.893 146.458C160.389 147.012 160.801 147.765 161.128 148.716C161.455 149.667 161.698 150.763 161.855 152.005C162.025 153.246 162.109 154.553 162.109 155.927C162.109 157.433 162.031 158.885 161.873 160.285C161.716 161.659 161.467 162.887 161.128 163.97C160.789 165.027 160.353 165.885 159.82 166.545C159.299 167.179 158.669 167.496 157.93 167.496C156.828 167.496 155.986 166.572 155.405 164.723H155.368V175.103H153.77V146.18ZM155.296 157.512C155.296 158.463 155.35 159.361 155.459 160.206C155.568 161.051 155.726 161.791 155.932 162.425C156.15 163.059 156.422 163.561 156.749 163.93C157.076 164.3 157.458 164.485 157.894 164.485C158.379 164.485 158.784 164.261 159.111 163.812C159.438 163.336 159.699 162.729 159.893 161.989C160.099 161.223 160.244 160.364 160.329 159.414C160.414 158.436 160.456 157.459 160.456 156.482C160.456 153.761 160.238 151.793 159.802 150.578C159.378 149.337 158.73 148.716 157.858 148.716C157.01 148.716 156.368 149.442 155.932 150.895C155.508 152.321 155.296 154.527 155.296 157.512Z" fill="white"/>
<path d="M149.068 166.902V152.401H149.014L144.308 165.04V166.902H142.709V146.22H144.308V160.523H144.362L149.068 148.003V146.22H150.667V166.902H149.068ZM144.835 137.939C145.029 140.026 145.646 141.069 146.688 141.069C147.73 141.069 148.348 140.026 148.541 137.939H149.432C149.335 141.532 148.42 143.328 146.688 143.328C144.956 143.328 144.041 141.532 143.945 137.939H144.835Z" fill="white"/>
<path d="M140.334 160.404C140.225 161.487 140.043 162.478 139.789 163.376C139.535 164.247 139.214 165 138.826 165.634C138.451 166.242 138.021 166.704 137.536 167.021C137.052 167.364 136.531 167.536 135.973 167.536C135.247 167.536 134.599 167.272 134.029 166.743C133.472 166.215 133 165.489 132.612 164.564C132.237 163.64 131.946 162.544 131.74 161.276C131.546 159.981 131.449 158.595 131.449 157.116C131.449 155.452 131.54 153.92 131.722 152.52C131.916 151.12 132.206 149.905 132.594 148.874C132.994 147.844 133.49 147.039 134.084 146.458C134.677 145.876 135.38 145.586 136.192 145.586C136.979 145.586 137.645 145.916 138.19 146.576C138.735 147.237 139.171 148.122 139.498 149.231C139.838 150.34 140.08 151.635 140.225 153.114C140.383 154.567 140.461 156.085 140.461 157.67H133.157C133.157 159.836 133.399 161.513 133.884 162.702C134.381 163.891 135.12 164.485 136.101 164.485C136.391 164.485 136.682 164.393 136.973 164.208C137.276 163.996 137.548 163.706 137.79 163.336C138.045 162.966 138.257 162.544 138.426 162.068C138.596 161.566 138.699 161.012 138.735 160.404H140.334ZM138.808 154.897C138.711 152.916 138.445 151.397 138.008 150.34C137.572 149.257 136.894 148.716 135.973 148.716C135.55 148.716 135.162 148.888 134.811 149.231C134.471 149.548 134.181 149.984 133.938 150.539C133.696 151.093 133.502 151.754 133.357 152.52C133.224 153.259 133.157 154.052 133.157 154.897H138.808Z" fill="white"/>
<path d="M128.772 166.897H127.173V157.785H122.63V166.897H121.031V146.176H122.63V154.734H127.173V146.176H128.772V166.897Z" fill="white"/>
<path d="M107.653 160.404C107.544 161.487 107.362 162.478 107.107 163.376C106.853 164.247 106.532 165 106.144 165.634C105.769 166.242 105.339 166.704 104.854 167.021C104.37 167.364 103.849 167.536 103.292 167.536C102.565 167.536 101.917 167.272 101.348 166.743C100.79 166.215 100.318 165.489 99.9304 164.564C99.5549 163.64 99.2642 162.544 99.0583 161.276C98.8645 159.981 98.7676 158.595 98.7676 157.116C98.7676 155.452 98.8584 153.92 99.0401 152.52C99.2339 151.12 99.5247 149.905 99.9123 148.874C100.312 147.844 100.809 147.039 101.402 146.458C101.996 145.876 102.698 145.586 103.51 145.586C104.297 145.586 104.963 145.916 105.509 146.576C106.054 147.237 106.49 148.122 106.817 149.231C107.156 150.34 107.398 151.635 107.544 153.114C107.701 154.567 107.78 156.085 107.78 157.67H100.476C100.476 159.836 100.718 161.513 101.202 162.702C101.699 163.891 102.438 164.485 103.419 164.485C103.71 164.485 104 164.393 104.291 164.208C104.594 163.996 104.867 163.706 105.109 163.336C105.363 162.966 105.575 162.544 105.745 162.068C105.914 161.566 106.017 161.012 106.054 160.404H107.653ZM106.126 154.897C106.029 152.916 105.763 151.397 105.327 150.34C104.891 149.257 104.212 148.716 103.292 148.716C102.868 148.716 102.48 148.888 102.129 149.231C101.79 149.548 101.499 149.984 101.257 150.539C101.015 151.093 100.821 151.754 100.675 152.52C100.542 153.259 100.476 154.052 100.476 154.897H106.126Z" fill="white"/>
<path d="M94.5938 166.905V152.403H94.5393L89.8333 165.043V166.905H88.2344V146.223H89.8333V160.526H89.8878L94.5938 148.006V146.223H96.1927V166.905H94.5938Z" fill="white"/>
<path d="M85.1915 166.897H83.5925V157.785H79.0501V166.897H77.4512V146.176H79.0501V154.734H83.5925V146.176H85.1915V166.897Z" fill="white"/>
<path d="M74.9651 160.404C74.856 161.487 74.6743 162.478 74.42 163.376C74.1656 164.247 73.8446 165 73.457 165.634C73.0815 166.242 72.6515 166.704 72.1669 167.021C71.6824 167.364 71.1615 167.536 70.6043 167.536C69.8775 167.536 69.2295 167.272 68.6602 166.743C68.103 166.215 67.6306 165.489 67.2429 164.564C66.8674 163.64 66.5767 162.544 66.3708 161.276C66.177 159.981 66.0801 158.595 66.0801 157.116C66.0801 155.452 66.1709 153.92 66.3526 152.52C66.5464 151.12 66.8371 149.905 67.2248 148.874C67.6245 147.844 68.1211 147.039 68.7147 146.458C69.3082 145.876 70.0108 145.586 70.8224 145.586C71.6097 145.586 72.2759 145.916 72.821 146.576C73.3661 147.237 73.8022 148.122 74.1293 149.231C74.4684 150.34 74.7107 151.635 74.856 153.114C75.0135 154.567 75.0923 156.085 75.0923 157.67H67.788C67.788 159.836 68.0303 161.513 68.5148 162.702C69.0115 163.891 69.7504 164.485 70.7315 164.485C71.0222 164.485 71.313 164.393 71.6037 164.208C71.9065 163.996 72.179 163.706 72.4213 163.336C72.6757 162.966 72.8877 162.544 73.0572 162.068C73.2268 161.566 73.3298 161.012 73.3661 160.404H74.9651ZM73.4388 154.897C73.3419 152.916 73.0754 151.397 72.6393 150.34C72.2033 149.257 71.5249 148.716 70.6043 148.716C70.1804 148.716 69.7928 148.888 69.4415 149.231C69.1023 149.548 68.8116 149.984 68.5693 150.539C68.3271 151.093 68.1333 151.754 67.9879 152.52C67.8547 153.259 67.788 154.052 67.788 154.897H73.4388Z" fill="white"/>
<path d="M63.4004 166.897H61.8015V157.785H57.2591V166.897H55.6602V146.176H57.2591V154.734H61.8015V146.176H63.4004V166.897Z" fill="white"/>
<path d="M51.0137 166.905V152.403H50.9592L46.2532 165.043V166.905H44.6543V146.223H46.2532V160.526H46.3077L51.0137 148.006V146.223H52.6126V166.905H51.0137Z" fill="white"/>
<path d="M32.8027 163.847H33.4023C34.0322 162.13 34.5167 160.03 34.8559 157.547C35.2072 155.038 35.3828 151.379 35.3828 146.572V146.176H41.1608V163.847H42.5054V173.871H40.9791V166.897H34.329V173.871H32.8027V163.847ZM36.8364 149.147C36.8122 154.773 36.2429 159.673 35.1285 163.847H39.5619V149.147H36.8364Z" fill="white"/>
<path d="M31.3869 160.404C31.2779 161.487 31.0962 162.478 30.8418 163.376C30.5875 164.247 30.2665 165 29.8789 165.634C29.5033 166.242 29.0733 166.704 28.5888 167.021C28.1043 167.364 27.5834 167.536 27.0262 167.536C26.2994 167.536 25.6514 167.272 25.0821 166.743C24.5248 166.215 24.0524 165.489 23.6648 164.564C23.2893 163.64 22.9986 162.544 22.7927 161.276C22.5989 159.981 22.502 158.595 22.502 157.116C22.502 155.452 22.5928 153.92 22.7745 152.52C22.9683 151.12 23.259 149.905 23.6466 148.874C24.0464 147.844 24.543 147.039 25.1366 146.458C25.7301 145.876 26.4327 145.586 27.2442 145.586C28.0316 145.586 28.6978 145.916 29.2429 146.576C29.788 147.237 30.2241 148.122 30.5511 149.231C30.8903 150.34 31.1326 151.635 31.2779 153.114C31.4354 154.567 31.5141 156.085 31.5141 157.67H24.2099C24.2099 159.836 24.4522 161.513 24.9367 162.702C25.4333 163.891 26.1722 164.485 27.1534 164.485C27.4441 164.485 27.7348 164.393 28.0255 164.208C28.3284 163.996 28.6009 163.706 28.8432 163.336C29.0976 162.966 29.3095 162.544 29.4791 162.068C29.6487 161.566 29.7517 161.012 29.788 160.404H31.3869ZM29.8607 154.897C29.7638 152.916 29.4973 151.397 29.0612 150.34C28.6251 149.257 27.9468 148.716 27.0262 148.716C26.6022 148.716 26.2146 148.888 25.8633 149.231C25.5242 149.548 25.2335 149.984 24.9912 150.539C24.7489 151.093 24.5551 151.754 24.4098 152.52C24.2765 153.259 24.2099 154.052 24.2099 154.897H29.8607Z" fill="white"/>
<path d="M11.7188 156.521C11.7188 155.069 11.8157 153.682 12.0095 152.361C12.2033 151.04 12.4879 149.878 12.8634 148.874C13.2389 147.871 13.6992 147.078 14.2443 146.497C14.7894 145.89 15.4133 145.586 16.1158 145.586C16.8184 145.586 17.4422 145.89 17.9873 146.497C18.5445 147.078 19.0109 147.871 19.3864 148.874C19.7619 149.878 20.0465 151.04 20.2403 152.361C20.4342 153.682 20.5311 155.069 20.5311 156.521C20.5311 157.974 20.4342 159.361 20.2403 160.681C20.0465 162.002 19.7619 163.178 19.3864 164.208C19.023 165.211 18.5627 166.017 18.0055 166.625C17.4604 167.206 16.8305 167.496 16.1158 167.496C15.4133 167.496 14.7894 167.206 14.2443 166.625C13.6992 166.017 13.2389 165.211 12.8634 164.208C12.4879 163.204 12.2033 162.042 12.0095 160.721C11.8157 159.4 11.7188 158 11.7188 156.521ZM13.354 156.521C13.354 157.525 13.4025 158.502 13.4994 159.453C13.6084 160.378 13.7719 161.223 13.99 161.989C14.208 162.729 14.4927 163.323 14.8439 163.772C15.1952 164.221 15.6192 164.445 16.1158 164.445C16.6003 164.445 17.0182 164.221 17.3695 163.772C17.7208 163.296 18.0115 162.689 18.2417 161.949C18.4718 161.183 18.6354 160.325 18.7323 159.374C18.8413 158.423 18.8958 157.472 18.8958 156.521C18.8958 155.544 18.8413 154.593 18.7323 153.669C18.6354 152.718 18.4718 151.872 18.2417 151.133C18.0115 150.393 17.7208 149.799 17.3695 149.35C17.0182 148.874 16.6003 148.637 16.1158 148.637C15.6313 148.637 15.2134 148.861 14.8621 149.31C14.5229 149.759 14.2383 150.354 14.0081 151.093C13.7901 151.806 13.6266 152.638 13.5176 153.589C13.4085 154.54 13.354 155.518 13.354 156.521Z" fill="white"/>
<path d="M7.74942 153.154C7.4587 150.195 6.64712 148.716 5.31468 148.716C4.80593 148.716 4.36985 148.94 4.00646 149.39C3.65518 149.812 3.36447 150.393 3.13432 151.133C2.91628 151.872 2.75881 152.718 2.6619 153.669C2.565 154.593 2.51655 155.544 2.51655 156.521C2.51655 159.215 2.75275 161.223 3.22516 162.544C3.69758 163.838 4.38802 164.485 5.29651 164.485C5.62356 164.485 5.92034 164.353 6.18682 164.089C6.46543 163.825 6.70769 163.468 6.91361 163.019C7.13165 162.57 7.30729 162.055 7.44053 161.474C7.58589 160.866 7.68885 160.232 7.74942 159.572H9.29385C9.11215 162.134 8.67002 164.102 7.96746 165.476C7.26489 166.823 6.36247 167.496 5.26017 167.496C4.5455 167.496 3.90956 167.232 3.35235 166.704C2.80726 166.149 2.34696 165.41 1.97145 164.485C1.59595 163.561 1.30523 162.464 1.09931 161.197C0.905499 159.929 0.808594 158.568 0.808594 157.116C0.808594 155.504 0.905499 153.999 1.09931 152.599C1.29312 151.199 1.58383 149.984 1.97145 148.954C2.35907 147.897 2.84966 147.078 3.4432 146.497C4.04886 145.89 4.75142 145.586 5.55089 145.586C6.09598 145.586 6.58656 145.771 7.02263 146.141C7.47082 146.51 7.85844 147.025 8.18549 147.686C8.51255 148.346 8.76692 149.139 8.94862 150.063C9.14243 150.988 9.25751 152.018 9.29385 153.154H7.74942Z" fill="white"/>
<path d="M123.39 108.104H125.243C125.885 108.104 126.34 107.879 126.606 107.43C126.873 106.981 127.006 106.242 127.006 105.212C127.006 104.155 126.818 103.323 126.443 102.715C126.067 102.108 125.522 101.804 124.807 101.804C124.153 101.804 123.638 102.121 123.263 102.755C122.899 103.389 122.687 104.3 122.627 105.489H121.101C121.137 104.327 121.258 103.323 121.464 102.478C121.682 101.632 121.955 100.946 122.282 100.417C122.621 99.8627 123.015 99.4533 123.463 99.1892C123.923 98.925 124.42 98.793 124.953 98.793C125.389 98.793 125.825 98.9118 126.261 99.1496C126.709 99.3609 127.103 99.7042 127.442 100.18C127.793 100.655 128.078 101.263 128.296 102.002C128.514 102.742 128.623 103.627 128.623 104.657C128.623 106.664 128.175 108.17 127.278 109.174V109.213C127.86 109.53 128.284 110.098 128.55 110.917C128.829 111.736 128.968 112.739 128.968 113.928C128.968 115.117 128.847 116.147 128.605 117.019C128.375 117.864 128.066 118.564 127.678 119.118C127.303 119.673 126.867 120.069 126.37 120.307C125.885 120.571 125.383 120.703 124.862 120.703C123.65 120.703 122.7 120.162 122.009 119.079C121.319 117.969 120.925 116.213 120.828 113.809H122.391C122.463 115.156 122.7 116.147 123.099 116.781C123.511 117.415 124.117 117.732 124.916 117.732C125.679 117.732 126.267 117.415 126.679 116.781C127.103 116.147 127.315 115.275 127.315 114.166C127.315 113.03 127.157 112.198 126.842 111.67C126.539 111.141 126.031 110.877 125.316 110.877H123.39V108.104Z" fill="white"/>
<path d="M118.545 113.65C118.436 114.733 118.254 115.724 118 116.622C117.746 117.493 117.425 118.246 117.037 118.88C116.662 119.488 116.232 119.95 115.747 120.267C115.262 120.61 114.742 120.782 114.184 120.782C113.458 120.782 112.81 120.518 112.24 119.99C111.683 119.461 111.211 118.735 110.823 117.81C110.448 116.886 110.157 115.79 109.951 114.522C109.757 113.228 109.66 111.841 109.66 110.362C109.66 108.698 109.751 107.166 109.933 105.766C110.127 104.366 110.417 103.151 110.805 102.121C111.205 101.09 111.701 100.285 112.295 99.7037C112.888 99.1226 113.591 98.832 114.402 98.832C115.19 98.832 115.856 99.1622 116.401 99.8226C116.946 100.483 117.382 101.368 117.709 102.477C118.049 103.587 118.291 104.881 118.436 106.36C118.594 107.813 118.672 109.332 118.672 110.916H111.368C111.368 113.082 111.61 114.76 112.095 115.948C112.592 117.137 113.33 117.731 114.312 117.731C114.602 117.731 114.893 117.639 115.184 117.454C115.487 117.242 115.759 116.952 116.001 116.582C116.256 116.212 116.468 115.79 116.637 115.314C116.807 114.812 116.91 114.258 116.946 113.65H118.545ZM117.019 108.143C116.922 106.162 116.655 104.643 116.219 103.587C115.783 102.504 115.105 101.962 114.184 101.962C113.76 101.962 113.373 102.134 113.022 102.477C112.682 102.794 112.392 103.23 112.149 103.785C111.907 104.339 111.713 105 111.568 105.766C111.435 106.505 111.368 107.298 111.368 108.143H117.019Z" fill="white"/>
<path d="M99.2949 99.4264H100.803V102.358H100.839C101.518 100.007 102.463 98.832 103.674 98.832C104.34 98.832 104.921 99.1226 105.418 99.7037C105.915 100.258 106.327 101.011 106.654 101.962C106.981 102.913 107.223 104.009 107.38 105.251C107.55 106.492 107.635 107.8 107.635 109.173C107.635 110.679 107.556 112.131 107.399 113.531C107.241 114.905 106.993 116.133 106.654 117.216C106.314 118.273 105.878 119.131 105.345 119.791C104.825 120.425 104.195 120.742 103.456 120.742C102.353 120.742 101.512 119.818 100.93 117.969H100.894V128.35H99.2949V99.4264ZM100.821 110.758C100.821 111.709 100.876 112.607 100.985 113.452C101.094 114.297 101.251 115.037 101.457 115.671C101.675 116.305 101.948 116.807 102.275 117.176C102.602 117.546 102.983 117.731 103.419 117.731C103.904 117.731 104.31 117.507 104.637 117.058C104.964 116.582 105.224 115.975 105.418 115.235C105.624 114.469 105.769 113.611 105.854 112.66C105.939 111.682 105.981 110.705 105.981 109.728C105.981 107.007 105.763 105.039 105.327 103.824C104.903 102.583 104.255 101.962 103.383 101.962C102.535 101.962 101.893 102.688 101.457 104.141C101.033 105.568 100.821 107.773 100.821 110.758Z" fill="white"/>
<path d="M96.758 113.65C96.649 114.733 96.4673 115.724 96.2129 116.622C95.9586 117.493 95.6376 118.246 95.2499 118.88C94.8744 119.488 94.4444 119.95 93.9599 120.267C93.4754 120.61 92.9545 120.782 92.3973 120.782C91.6705 120.782 91.0225 120.518 90.4531 119.99C89.8959 119.461 89.4235 118.735 89.0359 117.81C88.6604 116.886 88.3697 115.79 88.1638 114.522C87.97 113.228 87.873 111.841 87.873 110.362C87.873 108.698 87.9639 107.166 88.1456 105.766C88.3394 104.366 88.6301 103.151 89.0177 102.121C89.4175 101.09 89.9141 100.285 90.5077 99.7037C91.1012 99.1226 91.8038 98.832 92.6153 98.832C93.4027 98.832 94.0689 99.1622 94.614 99.8226C95.1591 100.483 95.5952 101.368 95.9222 102.477C96.2614 103.587 96.5037 104.881 96.649 106.36C96.8065 107.813 96.8852 109.332 96.8852 110.916H89.581C89.581 113.082 89.8233 114.76 90.3078 115.948C90.8044 117.137 91.5433 117.731 92.5245 117.731C92.8152 117.731 93.1059 117.639 93.3966 117.454C93.6995 117.242 93.972 116.952 94.2143 116.582C94.4686 116.212 94.6806 115.79 94.8502 115.314C95.0198 114.812 95.1228 114.258 95.1591 113.65H96.758ZM95.2318 108.143C95.1349 106.162 94.8684 104.643 94.4323 103.587C93.9962 102.504 93.3179 101.962 92.3973 101.962C91.9733 101.962 91.5857 102.134 91.2344 102.477C90.8953 102.794 90.6046 103.23 90.3623 103.785C90.12 104.339 89.9262 105 89.7809 105.766C89.6476 106.505 89.581 107.298 89.581 108.143H95.2318Z" fill="white"/>
<path d="M83.3156 111.671C82.928 111.803 82.5343 111.908 82.1346 111.988C81.7348 112.04 81.3412 112.067 80.9535 112.067C79.827 112.067 79.0033 111.591 78.4825 110.64C77.9616 109.663 77.7012 108.078 77.7012 105.886V99.4277H79.3001V105.133C79.3001 106.692 79.4576 107.761 79.7725 108.342C80.0875 108.897 80.6023 109.174 81.3169 109.174C82.0801 109.174 82.7463 109.056 83.3156 108.818V99.4277H84.9145V120.149H83.3156V111.671Z" fill="white"/>
<path d="M55.8585 105.726C55.9312 101.13 57.2394 98.832 59.7832 98.832C60.2193 98.832 60.6432 98.9377 61.0551 99.149C61.479 99.3603 61.8606 99.7037 62.1998 100.179C62.5389 100.628 62.8115 101.222 63.0174 101.962C63.2233 102.702 63.3263 103.587 63.3263 104.617V116.543C63.3263 117.361 63.4959 117.771 63.835 117.771C63.8956 117.771 63.9683 117.758 64.0531 117.731C64.15 117.705 64.2529 117.665 64.362 117.612V120.148C64.2166 120.28 64.0652 120.373 63.9077 120.425C63.7624 120.505 63.6109 120.544 63.4535 120.544C62.9084 120.544 62.5026 120.293 62.2361 119.791C61.9817 119.29 61.8424 118.484 61.8182 117.375C60.9097 119.62 59.765 120.742 58.3841 120.742C57.9602 120.742 57.5665 120.597 57.2031 120.306C56.8397 120.042 56.5248 119.659 56.2583 119.157C55.9918 118.629 55.7798 117.995 55.6223 117.256C55.477 116.516 55.4043 115.684 55.4043 114.76C55.4043 112.937 55.6405 111.471 56.1129 110.362C56.5853 109.226 57.2758 108.539 58.1843 108.301L61.0006 107.549C61.5093 107.443 61.7637 106.624 61.7637 105.092C61.7637 102.847 61.0187 101.724 59.5288 101.724C58.8505 101.724 58.3357 102.041 57.9844 102.675C57.6331 103.309 57.4211 104.326 57.3485 105.726H55.8585ZM61.7092 109.569C61.6002 109.807 61.364 110.032 61.0006 110.243C60.831 110.322 60.5827 110.415 60.2556 110.52C59.9407 110.626 59.547 110.745 59.0746 110.877C58.372 111.088 57.8572 111.471 57.5302 112.026C57.2031 112.58 57.0396 113.32 57.0396 114.245C57.0396 115.38 57.1728 116.265 57.4393 116.899C57.7179 117.533 58.1661 117.85 58.7839 117.85C59.0988 117.85 59.4259 117.744 59.765 117.533C60.1163 117.295 60.4313 116.978 60.7099 116.582C61.0006 116.16 61.2368 115.644 61.4185 115.037C61.6123 114.429 61.7092 113.743 61.7092 112.977V109.569Z" fill="white"/>
<path d="M46.5657 99.423V108.1H48.2919C48.7885 108.1 49.1519 107.875 49.382 107.426C49.6243 106.977 49.7697 106.357 49.8181 105.564L49.9998 101.998C50.0604 100.889 50.2421 100.123 50.5449 99.7003C50.8477 99.2777 51.2475 99.0664 51.7441 99.0664C52.1317 99.0664 52.4648 99.1192 52.7434 99.2249V102.117C52.5012 102.038 52.2952 101.998 52.1257 101.998C51.8713 101.998 51.6896 102.117 51.5806 102.355C51.4716 102.593 51.3989 103.015 51.3625 103.623L51.2353 105.881C51.1384 107.677 50.6781 108.866 49.8544 109.447V109.487C50.1452 109.645 50.3814 109.87 50.5631 110.16C50.7569 110.424 50.9143 110.741 51.0355 111.111C51.1566 111.455 51.2414 111.838 51.2899 112.26C51.3504 112.656 51.3928 113.066 51.417 113.488L51.5624 116.143C51.5987 116.75 51.6714 117.133 51.7804 117.292C51.8894 117.45 52.0651 117.53 52.3074 117.53C52.4769 117.53 52.6526 117.49 52.8343 117.411V120.264C52.592 120.396 52.2831 120.462 51.9076 120.462C51.3262 120.462 50.8841 120.264 50.5812 119.867C50.2784 119.471 50.1028 118.626 50.0543 117.332L49.8726 113.528C49.8363 112.683 49.6849 112.049 49.4184 111.626C49.164 111.204 48.8309 110.992 48.419 110.992H46.5657V120.145H44.9668V99.423H46.5657Z" fill="white"/>
<path d="M42.0648 120.149H40.484V99.4277H42.0648V120.149ZM33.416 99.4277H35.0149V107.391H35.8689C37.0076 107.391 37.8736 107.933 38.4672 109.016C39.0728 110.073 39.3757 111.591 39.3757 113.572C39.3757 114.629 39.2788 115.567 39.085 116.385C38.9033 117.204 38.6549 117.891 38.34 118.446C38.0251 119 37.6496 119.423 37.2135 119.714C36.7895 120.004 36.3413 120.149 35.8689 120.149H33.416V99.4277ZM35.0149 117.376H35.7054C36.3716 117.376 36.8743 117.046 37.2135 116.385C37.5527 115.699 37.7222 114.787 37.7222 113.652C37.7222 112.516 37.5466 111.657 37.1953 111.076C36.844 110.469 36.2808 110.165 35.5055 110.165H35.0149V117.376Z" fill="white"/>
<path d="M22.7578 99.4277H27.6455C28.0452 99.4277 28.4268 99.5334 28.7902 99.7447C29.1535 99.956 29.4745 100.273 29.7531 100.696C30.0317 101.118 30.2498 101.66 30.4073 102.32C30.5768 102.954 30.6616 103.72 30.6616 104.618C30.6616 106.652 30.1711 108.197 29.1899 109.254C30.3527 109.94 30.9342 111.525 30.9342 114.008C30.9342 115.038 30.8373 115.936 30.6435 116.702C30.4497 117.468 30.1892 118.116 29.8622 118.644C29.5351 119.146 29.1596 119.529 28.7356 119.793C28.3117 120.031 27.8756 120.149 27.4274 120.149H22.7578V99.4277ZM24.3386 108.224H26.9368C27.6757 108.224 28.2087 107.973 28.5358 107.471C28.8628 106.942 29.0264 106.15 29.0264 105.093C29.0264 103.192 28.3662 102.241 27.0459 102.241H24.3386V108.224ZM24.3386 117.376H27.2639C27.9543 117.376 28.4631 117.072 28.7902 116.465C29.1172 115.831 29.2807 114.999 29.2807 113.969C29.2807 111.855 28.5418 110.799 27.064 110.799H24.3386V117.376Z" fill="white"/>
<path d="M12.2804 105.726C12.3531 101.13 13.6613 98.832 16.2051 98.832C16.6411 98.832 17.0651 98.9377 17.4769 99.149C17.9009 99.3603 18.2825 99.7037 18.6216 100.179C18.9608 100.628 19.2334 101.222 19.4393 101.962C19.6452 102.702 19.7482 103.587 19.7482 104.617V116.543C19.7482 117.361 19.9177 117.771 20.2569 117.771C20.3175 117.771 20.3902 117.758 20.4749 117.731C20.5719 117.705 20.6748 117.665 20.7838 117.612V120.148C20.6385 120.28 20.4871 120.373 20.3296 120.425C20.1842 120.505 20.0328 120.544 19.8753 120.544C19.3303 120.544 18.9245 120.293 18.658 119.791C18.4036 119.29 18.2643 118.484 18.2401 117.375C17.3316 119.62 16.1869 120.742 14.806 120.742C14.382 120.742 13.9884 120.597 13.625 120.306C13.2616 120.042 12.9466 119.659 12.6801 119.157C12.4137 118.629 12.2017 117.995 12.0442 117.256C11.8989 116.516 11.8262 115.684 11.8262 114.76C11.8262 112.937 12.0624 111.471 12.5348 110.362C13.0072 109.226 13.6977 108.539 14.6061 108.301L17.4224 107.549C17.9312 107.443 18.1856 106.624 18.1856 105.092C18.1856 102.847 17.4406 101.724 15.9507 101.724C15.2724 101.724 14.7575 102.041 14.4063 102.675C14.055 103.309 13.843 104.326 13.7703 105.726H12.2804ZM18.1311 109.569C18.022 109.807 17.7858 110.032 17.4224 110.243C17.2529 110.322 17.0045 110.415 16.6775 110.52C16.3625 110.626 15.9689 110.745 15.4965 110.877C14.7939 111.088 14.2791 111.471 13.952 112.026C13.625 112.58 13.4614 113.32 13.4614 114.245C13.4614 115.38 13.5947 116.265 13.8612 116.899C14.1398 117.533 14.588 117.85 15.2057 117.85C15.5207 117.85 15.8477 117.744 16.1869 117.533C16.5382 117.295 16.8531 116.978 17.1317 116.582C17.4224 116.16 17.6586 115.644 17.8403 115.037C18.0342 114.429 18.1311 113.743 18.1311 112.977V109.569Z" fill="white"/>
<path d="M8.92584 120.149H7.32691V111.037H2.78448V120.149H1.18555V99.4277H2.78448V107.986H7.32691V99.4277H8.92584V120.149Z" fill="white"/>
<path d="M202.832 73.9527C202.287 73.9527 201.808 73.6886 201.396 73.1603C200.997 72.632 200.652 71.9188 200.361 71.0208C200.082 70.1227 199.864 69.0793 199.707 67.8907C199.561 66.6757 199.483 65.3814 199.47 64.0079H197.999V73.398H196.418V52.6763H197.999V61.0759H199.507C199.543 59.8081 199.64 58.6327 199.798 57.5497C199.967 56.4667 200.191 55.5158 200.47 54.697C200.761 53.8782 201.1 53.2442 201.487 52.7952C201.887 52.3198 202.335 52.082 202.832 52.082C203.401 52.082 203.898 52.3858 204.322 52.9933C204.758 53.6008 205.115 54.4064 205.394 55.4102C205.685 56.4139 205.903 57.5761 206.048 58.8968C206.193 60.2175 206.266 61.591 206.266 63.0174C206.266 64.4437 206.193 65.8172 206.048 67.1379C205.903 68.4322 205.685 69.5944 205.394 70.6246C205.115 71.6283 204.758 72.4339 204.322 73.0414C203.898 73.6489 203.401 73.9527 202.832 73.9527ZM201.015 63.0174C201.015 63.9947 201.045 64.9588 201.106 65.9097C201.166 66.8606 201.263 67.7058 201.396 68.4454C201.542 69.185 201.73 69.7925 201.96 70.268C202.19 70.717 202.481 70.9415 202.832 70.9415C203.171 70.9415 203.456 70.717 203.686 70.268C203.916 69.7925 204.104 69.185 204.249 68.4454C204.394 67.6794 204.497 66.821 204.558 65.8701C204.619 64.9192 204.649 63.9683 204.649 63.0174C204.649 62.0665 204.619 61.1288 204.558 60.2043C204.497 59.2534 204.394 58.4082 204.249 57.6686C204.104 56.9026 203.916 56.2818 203.686 55.8064C203.456 55.3309 203.171 55.0932 202.832 55.0932C202.481 55.0932 202.19 55.3309 201.96 55.8064C201.73 56.2554 201.542 56.8629 201.396 57.6289C201.263 58.3685 201.166 59.2138 201.106 60.1647C201.045 61.0892 201.015 62.0401 201.015 63.0174Z" fill="white"/>
<path d="M192.648 73.393V58.8918H192.594L187.888 71.5308V73.393H186.289V52.7109H187.888V67.014H187.943L192.648 54.4939V52.7109H194.247V73.393H192.648Z" fill="white"/>
<path d="M183.24 73.3935H181.641V64.2808H177.099V73.3935H175.5V52.6719H177.099V61.23H181.641V52.6719H183.24V73.3935Z" fill="white"/>
<path d="M164.808 58.976C164.88 54.38 166.189 52.082 168.732 52.082C169.168 52.082 169.592 52.1877 170.004 52.399C170.428 52.6103 170.81 52.9537 171.149 53.4291C171.488 53.8782 171.761 54.4725 171.967 55.2121C172.173 55.9517 172.276 56.8365 172.276 57.8667V69.7925C172.276 70.6113 172.445 71.0208 172.784 71.0208C172.845 71.0208 172.918 71.0076 173.002 70.9811C173.099 70.9547 173.202 70.9151 173.311 70.8623V73.398C173.166 73.5301 173.014 73.6225 172.857 73.6754C172.712 73.7546 172.56 73.7942 172.403 73.7942C171.858 73.7942 171.452 73.5433 171.185 73.0414C170.931 72.5396 170.792 71.7339 170.767 70.6246C169.859 72.8697 168.714 73.9923 167.333 73.9923C166.909 73.9923 166.516 73.847 166.152 73.5565C165.789 73.2924 165.474 72.9094 165.207 72.4075C164.941 71.8792 164.729 71.2453 164.572 70.5057C164.426 69.7661 164.354 68.9341 164.354 68.0096C164.354 66.187 164.59 64.7211 165.062 63.6117C165.535 62.4759 166.225 61.7891 167.133 61.5514L169.95 60.7986C170.459 60.6929 170.713 59.8741 170.713 58.3421C170.713 56.0969 169.968 54.9743 168.478 54.9743C167.8 54.9743 167.285 55.2913 166.934 55.9252C166.582 56.5592 166.37 57.5761 166.298 58.976H164.808ZM170.658 62.8193C170.549 63.057 170.313 63.2815 169.95 63.4928C169.78 63.5721 169.532 63.6645 169.205 63.7702C168.89 63.8758 168.496 63.9947 168.024 64.1268C167.321 64.3381 166.806 64.7211 166.479 65.2758C166.152 65.8304 165.989 66.57 165.989 67.4945C165.989 68.6303 166.122 69.5152 166.389 70.1491C166.667 70.783 167.115 71.1 167.733 71.1C168.048 71.1 168.375 70.9943 168.714 70.783C169.066 70.5453 169.38 70.2283 169.659 69.8321C169.95 69.4095 170.186 68.8945 170.368 68.2869C170.562 67.6794 170.658 66.9926 170.658 66.2266V62.8193Z" fill="white"/>
<path d="M152.641 70.3427H153.24C153.87 68.6258 154.355 66.5259 154.694 64.043C155.045 61.5337 155.221 57.8754 155.221 53.0681V52.6719H160.999V70.3427H162.343V80.3668H160.817V73.3935H154.167V80.3668H152.641V70.3427ZM156.674 55.6434C156.65 61.2696 156.081 66.1694 154.966 70.3427H159.4V55.6434H156.674Z" fill="white"/>
<path d="M145.177 61.3519H147.03C147.672 61.3519 148.127 61.1274 148.393 60.6783C148.66 60.2293 148.793 59.4897 148.793 58.4596C148.793 57.403 148.605 56.571 148.23 55.9635C147.854 55.356 147.309 55.0522 146.594 55.0522C145.94 55.0522 145.425 55.3692 145.05 56.0031C144.687 56.637 144.475 57.5483 144.414 58.7369H142.888C142.924 57.5747 143.045 56.571 143.251 55.7257C143.469 54.8805 143.742 54.1937 144.069 53.6655C144.408 53.1108 144.802 52.7014 145.25 52.4372C145.71 52.1731 146.207 52.041 146.74 52.041C147.176 52.041 147.612 52.1599 148.048 52.3976C148.496 52.6089 148.89 52.9523 149.229 53.4277C149.58 53.9032 149.865 54.5107 150.083 55.2503C150.301 55.9899 150.41 56.8748 150.41 57.9049C150.41 59.9123 149.962 61.4179 149.065 62.4217V62.4613C149.647 62.7782 150.071 63.3461 150.337 64.165C150.616 64.9838 150.755 65.9875 150.755 67.1762C150.755 68.3648 150.634 69.3949 150.392 70.2666C150.162 71.1118 149.853 71.8118 149.465 72.3665C149.09 72.9212 148.654 73.3174 148.157 73.5551C147.672 73.8192 147.17 73.9513 146.649 73.9513C145.438 73.9513 144.487 73.4098 143.796 72.3269C143.106 71.2175 142.712 69.461 142.615 67.0573H144.178C144.251 68.4044 144.487 69.3949 144.886 70.0289C145.298 70.6628 145.904 70.9797 146.703 70.9797C147.467 70.9797 148.054 70.6628 148.466 70.0289C148.89 69.3949 149.102 68.5233 149.102 67.4139C149.102 66.2781 148.944 65.446 148.629 64.9178C148.327 64.3895 147.818 64.1254 147.103 64.1254H145.177V61.3519Z" fill="white"/>
<path d="M131.564 63.0174C131.564 61.5646 131.661 60.1779 131.855 58.8572C132.049 57.5365 132.334 56.3743 132.709 55.3706C133.085 54.3668 133.545 53.5744 134.09 52.9933C134.635 52.3858 135.259 52.082 135.962 52.082C136.664 52.082 137.288 52.3858 137.833 52.9933C138.39 53.5744 138.857 54.3668 139.232 55.3706C139.608 56.3743 139.892 57.5365 140.086 58.8572C140.28 60.1779 140.377 61.5646 140.377 63.0174C140.377 64.4701 140.28 65.8569 140.086 67.1775C139.892 68.4982 139.608 69.6737 139.232 70.7038C138.869 71.7075 138.408 72.5131 137.851 73.1207C137.306 73.7018 136.676 73.9923 135.962 73.9923C135.259 73.9923 134.635 73.7018 134.09 73.1207C133.545 72.5131 133.085 71.7075 132.709 70.7038C132.334 69.7001 132.049 68.5379 131.855 67.2172C131.661 65.8965 131.564 64.4965 131.564 63.0174ZM133.2 63.0174C133.2 64.0211 133.248 64.9984 133.345 65.9493C133.454 66.8738 133.618 67.719 133.836 68.485C134.054 69.2246 134.338 69.8189 134.69 70.268C135.041 70.717 135.465 70.9415 135.962 70.9415C136.446 70.9415 136.864 70.717 137.215 70.268C137.567 69.7925 137.857 69.185 138.087 68.4454C138.318 67.6794 138.481 66.821 138.578 65.8701C138.687 64.9192 138.741 63.9683 138.741 63.0174C138.741 62.0401 138.687 61.0892 138.578 60.1647C138.481 59.2138 138.318 58.3685 138.087 57.6289C137.857 56.8894 137.567 56.295 137.215 55.846C136.864 55.3706 136.446 55.1328 135.962 55.1328C135.477 55.1328 135.059 55.3573 134.708 55.8064C134.369 56.2554 134.084 56.8497 133.854 57.5893C133.636 58.3025 133.472 59.1345 133.363 60.0854C133.254 61.0363 133.2 62.0136 133.2 63.0174Z" fill="white"/>
<path d="M127.589 59.6496C127.299 56.6912 126.487 55.2121 125.155 55.2121C124.646 55.2121 124.21 55.4366 123.846 55.8856C123.495 56.3082 123.204 56.8894 122.974 57.6289C122.756 58.3685 122.599 59.2138 122.502 60.1647C122.405 61.0892 122.356 62.0401 122.356 63.0174C122.356 65.7116 122.593 67.719 123.065 69.0397C123.537 70.334 124.228 70.9811 125.136 70.9811C125.463 70.9811 125.76 70.8491 126.027 70.5849C126.305 70.3208 126.548 69.9642 126.753 69.5152C126.972 69.0661 127.147 68.5511 127.28 67.97C127.426 67.3624 127.529 66.7285 127.589 66.0682H129.134C128.952 68.6303 128.51 70.5981 127.807 71.9717C127.105 73.3188 126.202 73.9923 125.1 73.9923C124.385 73.9923 123.749 73.7282 123.192 73.1999C122.647 72.6452 122.187 71.9056 121.811 70.9811C121.436 70.0567 121.145 68.9605 120.939 67.6926C120.745 66.4248 120.648 65.0644 120.648 63.6117C120.648 62.0004 120.745 60.4948 120.939 59.0949C121.133 57.695 121.424 56.4799 121.811 55.4498C122.199 54.3932 122.69 53.5744 123.283 52.9933C123.889 52.3858 124.591 52.082 125.391 52.082C125.936 52.082 126.426 52.2669 126.862 52.6367C127.311 53.0065 127.698 53.5216 128.025 54.1819C128.352 54.8423 128.607 55.6347 128.788 56.5592C128.982 57.4837 129.097 58.5138 129.134 59.6496H127.589Z" fill="white"/>
<path d="M98.877 63.0174C98.877 61.5646 98.9739 60.1779 99.1677 58.8572C99.3615 57.5365 99.6461 56.3743 100.022 55.3706C100.397 54.3668 100.857 53.5744 101.403 52.9933C101.948 52.3858 102.571 52.082 103.274 52.082C103.977 52.082 104.6 52.3858 105.145 52.9933C105.703 53.5744 106.169 54.3668 106.545 55.3706C106.92 56.3743 107.205 57.5365 107.399 58.8572C107.592 60.1779 107.689 61.5646 107.689 63.0174C107.689 64.4701 107.592 65.8569 107.399 67.1775C107.205 68.4982 106.92 69.6737 106.545 70.7038C106.181 71.7075 105.721 72.5131 105.164 73.1207C104.619 73.7018 103.989 73.9923 103.274 73.9923C102.571 73.9923 101.948 73.7018 101.403 73.1207C100.857 72.5131 100.397 71.7075 100.022 70.7038C99.6461 69.7001 99.3615 68.5379 99.1677 67.2172C98.9739 65.8965 98.877 64.4965 98.877 63.0174ZM100.512 63.0174C100.512 64.0211 100.561 64.9984 100.658 65.9493C100.767 66.8738 100.93 67.719 101.148 68.485C101.366 69.2246 101.651 69.8189 102.002 70.268C102.353 70.717 102.777 70.9415 103.274 70.9415C103.759 70.9415 104.176 70.717 104.528 70.268C104.879 69.7925 105.17 69.185 105.4 68.4454C105.63 67.6794 105.794 66.821 105.89 65.8701C105.999 64.9192 106.054 63.9683 106.054 63.0174C106.054 62.0401 105.999 61.0892 105.89 60.1647C105.794 59.2138 105.63 58.3685 105.4 57.6289C105.17 56.8894 104.879 56.295 104.528 55.846C104.176 55.3706 103.759 55.1328 103.274 55.1328C102.789 55.1328 102.372 55.3573 102.02 55.8064C101.681 56.2554 101.396 56.8497 101.166 57.5893C100.948 58.3025 100.785 59.1345 100.676 60.0854C100.567 61.0363 100.512 62.0136 100.512 63.0174Z" fill="white"/>
<path d="M88.4551 52.6719H95.9592V73.3935H94.3602V55.7227H90.054V73.3935H88.4551V52.6719Z" fill="white"/>
<path d="M69.4805 69.1973H71.3701V73.0801C71.3701 74.7178 71.2248 76.0781 70.934 77.161C70.6433 78.244 70.1588 78.9308 69.4805 79.2213V77.3988C70.1225 77.2403 70.4435 75.9064 70.4435 73.3971H69.4805V69.1973Z" fill="white"/>
<path d="M62.2201 59.6496C61.9294 56.6912 61.1178 55.2121 59.7854 55.2121C59.2766 55.2121 58.8406 55.4366 58.4772 55.8856C58.1259 56.3082 57.8352 56.8894 57.605 57.6289C57.387 58.3685 57.2295 59.2138 57.1326 60.1647C57.0357 61.0892 56.9872 62.0401 56.9872 63.0174C56.9872 65.7116 57.2235 67.719 57.6959 69.0397C58.1683 70.334 58.8587 70.9811 59.7672 70.9811C60.0943 70.9811 60.391 70.8491 60.6575 70.5849C60.9361 70.3208 61.1784 69.9642 61.3843 69.5152C61.6024 69.0661 61.778 68.5511 61.9112 67.97C62.0566 67.3624 62.1596 66.7285 62.2201 66.0682H63.7645C63.5829 68.6303 63.1407 70.5981 62.4382 71.9717C61.7356 73.3188 60.8332 73.9923 59.7309 73.9923C59.0162 73.9923 58.3803 73.7282 57.8231 73.1999C57.278 72.6452 56.8177 71.9056 56.4422 70.9811C56.0666 70.0567 55.7759 68.9605 55.57 67.6926C55.3762 66.4248 55.2793 65.0644 55.2793 63.6117C55.2793 62.0004 55.3762 60.4948 55.57 59.0949C55.7638 57.695 56.0545 56.4799 56.4422 55.4498C56.8298 54.3932 57.3204 53.5744 57.9139 52.9933C58.5196 52.3858 59.2221 52.082 60.0216 52.082C60.5667 52.082 61.0573 52.2669 61.4933 52.6367C61.9415 53.0065 62.3291 53.5216 62.6562 54.1819C62.9833 54.8423 63.2376 55.6347 63.4193 56.5592C63.6131 57.4837 63.7282 58.5138 63.7645 59.6496H62.2201Z" fill="white"/>
<path d="M51.0137 73.3983V58.8971H50.9592L46.2532 71.5362V73.3983H44.6543V52.7163H46.2532V67.0194H46.3077L51.0137 54.4992V52.7163H52.6126V73.3983H51.0137ZM46.7801 44.4355C46.974 46.5222 47.5917 47.5656 48.6335 47.5656C49.6752 47.5656 50.293 46.5222 50.4868 44.4355H51.3771C51.2802 48.0278 50.3656 49.824 48.6335 49.824C46.9013 49.824 45.9867 48.0278 45.8898 44.4355H46.7801Z" fill="white"/>
<path d="M34.0695 58.976C34.1422 54.38 35.4504 52.082 37.9941 52.082C38.4302 52.082 38.8542 52.1877 39.266 52.399C39.69 52.6103 40.0715 52.9537 40.4107 53.4291C40.7499 53.8782 41.0224 54.4725 41.2283 55.2121C41.4343 55.9517 41.5372 56.8365 41.5372 57.8667V69.7925C41.5372 70.6113 41.7068 71.0208 42.046 71.0208C42.1065 71.0208 42.1792 71.0076 42.264 70.9811C42.3609 70.9547 42.4639 70.9151 42.5729 70.8623V73.398C42.4275 73.5301 42.2761 73.6225 42.1187 73.6754C41.9733 73.7546 41.8219 73.7942 41.6644 73.7942C41.1193 73.7942 40.7135 73.5433 40.447 73.0414C40.1927 72.5396 40.0534 71.7339 40.0291 70.6246C39.1207 72.8697 37.976 73.9923 36.5951 73.9923C36.1711 73.9923 35.7774 73.847 35.414 73.5565C35.0506 73.2924 34.7357 72.9094 34.4692 72.4075C34.2027 71.8792 33.9907 71.2453 33.8333 70.5057C33.6879 69.7661 33.6152 68.9341 33.6152 68.0096C33.6152 66.187 33.8514 64.7211 34.3239 63.6117C34.7963 62.4759 35.4867 61.7891 36.3952 61.5514L39.2115 60.7986C39.7203 60.6929 39.9746 59.8741 39.9746 58.3421C39.9746 56.0969 39.2297 54.9743 37.7398 54.9743C37.0614 54.9743 36.5466 55.2913 36.1953 55.9252C35.8441 56.5592 35.6321 57.5761 35.5594 58.976H34.0695ZM39.9201 62.8193C39.8111 63.057 39.5749 63.2815 39.2115 63.4928C39.0419 63.5721 38.7936 63.6645 38.4665 63.7702C38.1516 63.8758 37.7579 63.9947 37.2855 64.1268C36.583 64.3381 36.0681 64.7211 35.7411 65.2758C35.414 65.8304 35.2505 66.57 35.2505 67.4945C35.2505 68.6303 35.3838 69.5152 35.6502 70.1491C35.9288 70.783 36.377 71.1 36.9948 71.1C37.3097 71.1 37.6368 70.9943 37.976 70.783C38.3272 70.5453 38.6422 70.2283 38.9208 69.8321C39.2115 69.4095 39.4477 68.8945 39.6294 68.2869C39.8232 67.6794 39.9201 66.9926 39.9201 66.2266V62.8193Z" fill="white"/>
<path d="M22.7578 52.6719H27.6455C28.0452 52.6719 28.4268 52.7775 28.7902 52.9888C29.1535 53.2002 29.4745 53.5171 29.7531 53.9397C30.0317 54.3624 30.2498 54.9038 30.4073 55.5642C30.5768 56.1981 30.6616 56.9641 30.6616 57.8622C30.6616 59.8961 30.1711 61.4413 29.1899 62.4978C30.3527 63.1846 30.9342 64.7694 30.9342 67.2523C30.9342 68.2825 30.8373 69.1805 30.6435 69.9465C30.4497 70.7125 30.1892 71.3597 29.8622 71.8879C29.5351 72.3898 29.1596 72.7728 28.7356 73.037C28.3117 73.2747 27.8756 73.3935 27.4274 73.3935H22.7578V52.6719ZM24.3386 61.4677H26.9368C27.6757 61.4677 28.2087 61.2168 28.5358 60.7149C28.8628 60.1866 29.0264 59.3942 29.0264 58.3376C29.0264 56.4358 28.3662 55.485 27.0459 55.485H24.3386V61.4677ZM24.3386 70.6201H27.2639C27.9543 70.6201 28.4631 70.3163 28.7902 69.7088C29.1172 69.0749 29.2807 68.2428 29.2807 67.2127C29.2807 65.0996 28.5418 64.043 27.064 64.043H24.3386V70.6201Z" fill="white"/>
<path d="M20.4963 66.9002C20.3873 67.9832 20.2056 68.9737 19.9512 69.8718C19.6968 70.7434 19.3758 71.4962 18.9882 72.1301C18.6127 72.7377 18.1827 73.1999 17.6982 73.5169C17.2137 73.8603 16.6928 74.0319 16.1356 74.0319C15.4088 74.0319 14.7607 73.7678 14.1914 73.2395C13.6342 72.7113 13.1618 71.9849 12.7742 71.0604C12.3987 70.1359 12.108 69.0397 11.902 67.7719C11.7082 66.4776 11.6113 65.0909 11.6113 63.6117C11.6113 61.9476 11.7022 60.4156 11.8839 59.0157C12.0777 57.6157 12.3684 56.4007 12.756 55.3706C13.1558 54.3404 13.6524 53.5348 14.2459 52.9537C14.8395 52.3726 15.542 52.082 16.3536 52.082C17.141 52.082 17.8072 52.4122 18.3523 53.0726C18.8974 53.7329 19.3335 54.6178 19.6605 55.7271C19.9997 56.8365 20.2419 58.1308 20.3873 59.61C20.5448 61.0627 20.6235 62.5815 20.6235 64.1664H13.3193C13.3193 66.3323 13.5615 68.0096 14.0461 69.1982C14.5427 70.3868 15.2816 70.9811 16.2628 70.9811C16.5535 70.9811 16.8442 70.8887 17.1349 70.7038C17.4377 70.4925 17.7103 70.2019 17.9526 69.8321C18.2069 69.4623 18.4189 69.0397 18.5885 68.5643C18.7581 68.0624 18.861 67.5077 18.8974 66.9002H20.4963ZM18.9701 61.3929C18.8732 59.4119 18.6067 57.8931 18.1706 56.8365C17.7345 55.7536 17.0562 55.2121 16.1356 55.2121C15.7116 55.2121 15.324 55.3838 14.9727 55.7271C14.6336 56.0441 14.3428 56.4799 14.1006 57.0346C13.8583 57.5893 13.6645 58.2497 13.5191 59.0157C13.3859 59.7553 13.3193 60.5477 13.3193 61.3929H18.9701Z" fill="white"/>
<path d="M0.115234 70.3427H0.714835C1.34472 68.6258 1.82924 66.5259 2.16841 64.043C2.51969 61.5337 2.69533 57.8754 2.69533 53.0681V52.6719H8.4733V70.3427H9.81786V80.3668H8.2916V73.3935H1.64149V80.3668H0.115234V70.3427ZM4.14891 55.6434C4.12468 61.2696 3.55536 66.1694 2.44096 70.3427H6.87436V55.6434H4.14891Z" fill="white"/>
<path d="M186.033 16.2654C186.033 14.8127 186.13 13.4259 186.324 12.1052C186.518 10.7845 186.802 9.62233 187.178 8.6186C187.553 7.61488 188.014 6.82246 188.559 6.24136C189.104 5.63384 189.728 5.33008 190.43 5.33008C191.133 5.33008 191.757 5.63384 192.302 6.24136C192.859 6.82246 193.325 7.61488 193.701 8.6186C194.076 9.62233 194.361 10.7845 194.555 12.1052C194.749 13.4259 194.846 14.8127 194.846 16.2654C194.846 17.7182 194.749 19.1049 194.555 20.4256C194.361 21.7463 194.076 22.9217 193.701 23.9518C193.337 24.9556 192.877 25.7612 192.32 26.3687C191.775 26.9498 191.145 27.2404 190.43 27.2404C189.728 27.2404 189.104 26.9498 188.559 26.3687C188.014 25.7612 187.553 24.9556 187.178 23.9518C186.802 22.9481 186.518 21.7859 186.324 20.4652C186.13 19.1445 186.033 17.7446 186.033 16.2654ZM187.668 16.2654C187.668 17.2691 187.717 18.2465 187.814 19.1973C187.923 20.1218 188.086 20.9671 188.304 21.7331C188.522 22.4727 188.807 23.067 189.158 23.516C189.51 23.965 189.934 24.1896 190.43 24.1896C190.915 24.1896 191.333 23.965 191.684 23.516C192.035 23.0406 192.326 22.433 192.556 21.6935C192.786 20.9275 192.95 20.069 193.047 19.1181C193.156 18.1672 193.21 17.2163 193.21 16.2654C193.21 15.2881 193.156 14.3372 193.047 13.4127C192.95 12.4618 192.786 11.6166 192.556 10.877C192.326 10.1374 192.035 9.54309 191.684 9.09405C191.333 8.6186 190.915 8.38088 190.43 8.38088C189.946 8.38088 189.528 8.60539 189.177 9.05443C188.837 9.50347 188.553 10.0978 188.323 10.8374C188.105 11.5505 187.941 12.3826 187.832 13.3335C187.723 14.2844 187.668 15.2617 187.668 16.2654Z" fill="white"/>
<path d="M178.574 9.04996H175.285V5.91992H183.462V9.04996H180.173V26.6416H178.574V9.04996Z" fill="white"/>
<path d="M166.625 14.4825H170.913C170.731 10.3883 169.871 8.34126 168.333 8.34126C166.964 8.34126 166.146 9.70157 165.88 12.4222H164.354C164.523 10.0978 164.947 8.34126 165.625 7.15263C166.316 5.9376 167.212 5.33008 168.315 5.33008C169.041 5.33008 169.671 5.60742 170.204 6.16212C170.737 6.69039 171.179 7.44319 171.531 8.4205C171.882 9.3714 172.142 10.5072 172.312 11.8279C172.494 13.1222 172.584 14.5353 172.584 16.0673C172.584 17.705 172.494 19.2106 172.312 20.5841C172.13 21.9312 171.852 23.1066 171.476 24.1103C171.101 25.0876 170.628 25.8536 170.059 26.4083C169.502 26.963 168.841 27.2404 168.078 27.2404C166.952 27.2404 166.068 26.5932 165.426 25.299C164.784 23.9783 164.426 22.1161 164.354 19.7124H165.862C165.934 21.1916 166.177 22.3274 166.588 23.1198C167.012 23.8858 167.545 24.2688 168.187 24.2688C169.084 24.2688 169.75 23.6613 170.186 22.4463C170.622 21.2312 170.87 19.5275 170.931 17.3352H166.625V14.4825Z" fill="white"/>
<path d="M152.138 17.1345H141.236V14.2422H152.138V17.1345Z" fill="white"/>
<path d="M123.812 26.6461H122.213V5.92439H123.721V9.3714H123.757C124.666 6.67718 125.859 5.33008 127.337 5.33008C127.761 5.33008 128.203 5.3697 128.663 5.44894V9.05443H127.337C126.816 9.05443 126.337 9.23933 125.901 9.60912C125.477 9.97892 125.108 10.4808 124.793 11.1147C124.49 11.7486 124.248 12.5014 124.066 13.3731C123.897 14.2448 123.812 15.1824 123.812 16.1862V26.6461Z" fill="white"/>
<path d="M109.771 16.2654C109.771 14.8127 109.868 13.4259 110.062 12.1052C110.256 10.7845 110.541 9.62233 110.916 8.6186C111.292 7.61488 111.752 6.82246 112.297 6.24136C112.842 5.63384 113.466 5.33008 114.169 5.33008C114.871 5.33008 115.495 5.63384 116.04 6.24136C116.597 6.82246 117.064 7.61488 117.439 8.6186C117.815 9.62233 118.099 10.7845 118.293 12.1052C118.487 13.4259 118.584 14.8127 118.584 16.2654C118.584 17.7182 118.487 19.1049 118.293 20.4256C118.099 21.7463 117.815 22.9217 117.439 23.9518C117.076 24.9556 116.615 25.7612 116.058 26.3687C115.513 26.9498 114.883 27.2404 114.169 27.2404C113.466 27.2404 112.842 26.9498 112.297 26.3687C111.752 25.7612 111.292 24.9556 110.916 23.9518C110.541 22.9481 110.256 21.7859 110.062 20.4652C109.868 19.1445 109.771 17.7446 109.771 16.2654ZM111.407 16.2654C111.407 17.2691 111.455 18.2465 111.552 19.1973C111.661 20.1218 111.825 20.9671 112.043 21.7331C112.261 22.4727 112.545 23.067 112.897 23.516C113.248 23.965 113.672 24.1896 114.169 24.1896C114.653 24.1896 115.071 23.965 115.422 23.516C115.774 23.0406 116.064 22.433 116.294 21.6935C116.525 20.9275 116.688 20.069 116.785 19.1181C116.894 18.1672 116.949 17.2163 116.949 16.2654C116.949 15.2881 116.894 14.3372 116.785 13.4127C116.688 12.4618 116.525 11.6166 116.294 10.877C116.064 10.1374 115.774 9.54309 115.422 9.09405C115.071 8.6186 114.653 8.38088 114.169 8.38088C113.684 8.38088 113.266 8.60539 112.915 9.05443C112.576 9.50347 112.291 10.0978 112.061 10.8374C111.843 11.5505 111.679 12.3826 111.57 13.3335C111.461 14.2844 111.407 15.2617 111.407 16.2654Z" fill="white"/>
<path d="M103.599 8.81367V20.6999C103.599 21.7829 103.744 22.5885 104.035 23.1168C104.325 23.645 104.846 23.9092 105.597 23.9092H107.305V26.643C106.918 26.7223 106.524 26.7883 106.124 26.8411C105.736 26.8939 105.367 26.9204 105.016 26.9204C103.95 26.9204 103.181 26.4581 102.708 25.5336C102.236 24.5827 102 23.0375 102 20.898V8.81367H98.8926V5.92135H102V0.136719H103.599V5.92135H107.305V8.81367H103.599Z" fill="white"/>
<path d="M94.9076 12.8976C94.6169 9.9393 93.8053 8.46012 92.4729 8.46012C91.9641 8.46012 91.5281 8.68464 91.1647 9.13367C90.8134 9.55629 90.5227 10.1374 90.2925 10.877C90.0745 11.6166 89.917 12.4618 89.8201 13.4127C89.7232 14.3372 89.6747 15.2881 89.6747 16.2654C89.6747 18.9596 89.911 20.9671 90.3834 22.2878C90.8558 23.5821 91.5462 24.2292 92.4547 24.2292C92.7818 24.2292 93.0785 24.0971 93.345 23.833C93.6236 23.5688 93.8659 23.2123 94.0718 22.7632C94.2899 22.3142 94.4655 21.7991 94.5987 21.218C94.7441 20.6105 94.8471 19.9766 94.9076 19.3162H96.452C96.2703 21.8784 95.8282 23.8462 95.1257 25.2197C94.4231 26.5668 93.5207 27.2404 92.4184 27.2404C91.7037 27.2404 91.0678 26.9762 90.5106 26.448C89.9655 25.8933 89.5052 25.1537 89.1297 24.2292C88.7541 23.3047 88.4634 22.2085 88.2575 20.9407C88.0637 19.6728 87.9668 18.3125 87.9668 16.8597C87.9668 15.2485 88.0637 13.7429 88.2575 12.343C88.4513 10.943 88.742 9.72798 89.1297 8.69785C89.5173 7.64129 90.0079 6.82246 90.6014 6.24136C91.2071 5.63384 91.9096 5.33008 92.7091 5.33008C93.2542 5.33008 93.7448 5.51497 94.1808 5.88477C94.629 6.25456 95.0166 6.76963 95.3437 7.42998C95.6708 8.09033 95.9251 8.88274 96.1068 9.80723C96.3006 10.7317 96.4157 11.7619 96.452 12.8976H94.9076Z" fill="white"/>
<path d="M85.8635 20.1482C85.7545 21.2312 85.5728 22.2217 85.3184 23.1198C85.064 23.9915 84.743 24.7443 84.3554 25.3782C83.9799 25.9857 83.5499 26.448 83.0654 26.7649C82.5808 27.1083 82.06 27.28 81.5028 27.28C80.776 27.28 80.1279 27.0159 79.5586 26.4876C79.0014 25.9593 78.529 25.2329 78.1414 24.3084C77.7659 23.3839 77.4752 22.2878 77.2692 21.0199C77.0754 19.7256 76.9785 18.3389 76.9785 16.8597C76.9785 15.1957 77.0694 13.6636 77.2511 12.2637C77.4449 10.8638 77.7356 9.64874 78.1232 8.6186C78.5229 7.58846 79.0196 6.78284 79.6131 6.20174C80.2067 5.62063 80.9092 5.33008 81.7208 5.33008C82.5082 5.33008 83.1744 5.66025 83.7195 6.3206C84.2646 6.98094 84.7006 7.86581 85.0277 8.97519C85.3669 10.0846 85.6091 11.3788 85.7545 12.858C85.912 14.3108 85.9907 15.8296 85.9907 17.4144H78.6865C78.6865 19.5803 78.9287 21.2576 79.4133 22.4463C79.9099 23.6349 80.6488 24.2292 81.63 24.2292C81.9207 24.2292 82.2114 24.1367 82.5021 23.9518C82.8049 23.7405 83.0775 23.45 83.3197 23.0802C83.5741 22.7104 83.7861 22.2878 83.9557 21.8123C84.1253 21.3105 84.2282 20.7558 84.2646 20.1482H85.8635ZM84.3372 14.641C84.2403 12.6599 83.9739 11.1411 83.5378 10.0846C83.1017 9.0016 82.4234 8.46012 81.5028 8.46012C81.0788 8.46012 80.6912 8.63181 80.3399 8.97519C80.0007 9.29216 79.71 9.72798 79.4678 10.2827C79.2255 10.8374 79.0317 11.4977 78.8863 12.2637C78.7531 13.0033 78.6865 13.7957 78.6865 14.641H84.3372Z" fill="white"/>
<path d="M74.295 26.6461H72.696V13.8882C72.696 13.0165 72.6658 12.2505 72.6052 11.5902C72.5446 10.9034 72.4356 10.3355 72.2781 9.88647C72.1328 9.41102 71.9269 9.05443 71.6604 8.81671C71.3939 8.57898 71.0608 8.46012 70.661 8.46012C70.2371 8.46012 69.8676 8.64502 69.5527 9.01481C69.2377 9.3846 68.9773 9.88647 68.7714 10.5204C68.5655 11.1543 68.408 11.8939 68.299 12.7392C68.2021 13.558 68.1536 14.4297 68.1536 15.3541V26.6461H66.5547V5.92439H68.0628V8.85633H68.0991C68.8501 6.50549 69.8071 5.33008 70.9699 5.33008C72.0601 5.33008 72.8838 5.9508 73.441 7.19226C74.0103 8.43371 74.295 10.2166 74.295 12.5411V26.6461Z" fill="white"/>
<path d="M63.4004 26.6461H61.8015V13.8882C61.8015 13.0165 61.7712 12.2505 61.7107 11.5902C61.6501 10.9034 61.5411 10.3355 61.3836 9.88647C61.2383 9.41102 61.0323 9.05443 60.7658 8.81671C60.4993 8.57898 60.1662 8.46012 59.7665 8.46012C59.3425 8.46012 58.9731 8.64502 58.6582 9.01481C58.3432 9.3846 58.0828 9.88647 57.8769 10.5204C57.6709 11.1543 57.5135 11.8939 57.4044 12.7392C57.3075 13.558 57.2591 14.4297 57.2591 15.3541V26.6461H55.6602V5.92439H57.1682V8.85633H57.2046C57.9556 6.50549 58.9125 5.33008 60.0754 5.33008C61.1656 5.33008 61.9893 5.9508 62.5465 7.19226C63.1158 8.43371 63.4004 10.2166 63.4004 12.5411V26.6461Z" fill="white"/>
<path d="M44.4043 16.2654C44.4043 14.8127 44.5012 13.4259 44.695 12.1052C44.8888 10.7845 45.1735 9.62233 45.549 8.6186C45.9245 7.61488 46.3848 6.82246 46.9299 6.24136C47.475 5.63384 48.0988 5.33008 48.8014 5.33008C49.5039 5.33008 50.1278 5.63384 50.6728 6.24136C51.2301 6.82246 51.6964 7.61488 52.0719 8.6186C52.4474 9.62233 52.7321 10.7845 52.9259 12.1052C53.1197 13.4259 53.2166 14.8127 53.2166 16.2654C53.2166 17.7182 53.1197 19.1049 52.9259 20.4256C52.7321 21.7463 52.4474 22.9217 52.0719 23.9518C51.7085 24.9556 51.2482 25.7612 50.691 26.3687C50.1459 26.9498 49.516 27.2404 48.8014 27.2404C48.0988 27.2404 47.475 26.9498 46.9299 26.3687C46.3848 25.7612 45.9245 24.9556 45.549 23.9518C45.1735 22.9481 44.8888 21.7859 44.695 20.4652C44.5012 19.1445 44.4043 17.7446 44.4043 16.2654ZM46.0396 16.2654C46.0396 17.2691 46.088 18.2465 46.1849 19.1973C46.2939 20.1218 46.4575 20.9671 46.6755 21.7331C46.8935 22.4727 47.1782 23.067 47.5295 23.516C47.8808 23.965 48.3047 24.1896 48.8014 24.1896C49.2859 24.1896 49.7038 23.965 50.0551 23.516C50.4064 23.0406 50.6971 22.433 50.9272 21.6935C51.1574 20.9275 51.3209 20.069 51.4178 19.1181C51.5268 18.1672 51.5813 17.2163 51.5813 16.2654C51.5813 15.2881 51.5268 14.3372 51.4178 13.4127C51.3209 12.4618 51.1574 11.6166 50.9272 10.877C50.6971 10.1374 50.4064 9.54309 50.0551 9.09405C49.7038 8.6186 49.2859 8.38088 48.8014 8.38088C48.3168 8.38088 47.8989 8.60539 47.5477 9.05443C47.2085 9.50347 46.9238 10.0978 46.6937 10.8374C46.4756 11.5505 46.3121 12.3826 46.2031 13.3335C46.0941 14.2844 46.0396 15.2617 46.0396 16.2654Z" fill="white"/>
<path d="M40.4311 12.8976C40.1403 9.9393 39.3288 8.46012 37.9963 8.46012C37.4876 8.46012 37.0515 8.68464 36.6881 9.13367C36.3368 9.55629 36.0461 10.1374 35.816 10.877C35.5979 11.6166 35.4404 12.4618 35.3435 13.4127C35.2466 14.3372 35.1982 15.2881 35.1982 16.2654C35.1982 18.9596 35.4344 20.9671 35.9068 22.2878C36.3792 23.5821 37.0697 24.2292 37.9781 24.2292C38.3052 24.2292 38.602 24.0971 38.8685 23.833C39.1471 23.5688 39.3893 23.2123 39.5953 22.7632C39.8133 22.3142 39.9889 21.7991 40.1222 21.218C40.2675 20.6105 40.3705 19.9766 40.4311 19.3162H41.9755C41.7938 21.8784 41.3517 23.8462 40.6491 25.2197C39.9465 26.5668 39.0441 27.2404 37.9418 27.2404C37.2271 27.2404 36.5912 26.9762 36.034 26.448C35.4889 25.8933 35.0286 25.1537 34.6531 24.2292C34.2776 23.3047 33.9869 22.2085 33.7809 20.9407C33.5871 19.6728 33.4902 18.3125 33.4902 16.8597C33.4902 15.2485 33.5871 13.7429 33.7809 12.343C33.9748 10.943 34.2655 9.72798 34.6531 8.69785C35.0407 7.64129 35.5313 6.82246 36.1248 6.24136C36.7305 5.63384 37.4331 5.33008 38.2325 5.33008C38.7776 5.33008 39.2682 5.51497 39.7043 5.88477C40.1525 6.25456 40.5401 6.76963 40.8671 7.42998C41.1942 8.09033 41.4486 8.88274 41.6303 9.80723C41.8241 10.7317 41.9391 11.7619 41.9755 12.8976H40.4311Z" fill="white"/>
<path d="M25.9023 22.4434H27.792V26.6432H25.9023V22.4434Z" fill="white"/>
<path d="M20.4963 20.1482C20.3873 21.2312 20.2056 22.2217 19.9512 23.1198C19.6968 23.9915 19.3758 24.7443 18.9882 25.3782C18.6127 25.9857 18.1827 26.448 17.6982 26.7649C17.2137 27.1083 16.6928 27.28 16.1356 27.28C15.4088 27.28 14.7607 27.0159 14.1914 26.4876C13.6342 25.9593 13.1618 25.2329 12.7742 24.3084C12.3987 23.3839 12.108 22.2878 11.902 21.0199C11.7082 19.7256 11.6113 18.3389 11.6113 16.8597C11.6113 15.1957 11.7022 13.6636 11.8839 12.2637C12.0777 10.8638 12.3684 9.64874 12.756 8.6186C13.1558 7.58846 13.6524 6.78284 14.2459 6.20174C14.8395 5.62063 15.542 5.33008 16.3536 5.33008C17.141 5.33008 17.8072 5.66025 18.3523 6.3206C18.8974 6.98094 19.3335 7.86581 19.6605 8.97519C19.9997 10.0846 20.2419 11.3788 20.3873 12.858C20.5448 14.3108 20.6235 15.8296 20.6235 17.4144H13.3193C13.3193 19.5803 13.5615 21.2576 14.0461 22.4463C14.5427 23.6349 15.2816 24.2292 16.2628 24.2292C16.5535 24.2292 16.8442 24.1367 17.1349 23.9518C17.4377 23.7405 17.7103 23.45 17.9526 23.0802C18.2069 22.7104 18.4189 22.2878 18.5885 21.8123C18.7581 21.3105 18.861 20.7558 18.8974 20.1482H20.4963ZM18.9701 14.641C18.8732 12.6599 18.6067 11.1411 18.1706 10.0846C17.7345 9.0016 17.0562 8.46012 16.1356 8.46012C15.7116 8.46012 15.324 8.63181 14.9727 8.97519C14.6336 9.29216 14.3428 9.72798 14.1006 10.2827C13.8583 10.8374 13.6645 11.4977 13.5191 12.2637C13.3859 13.0033 13.3193 13.7957 13.3193 14.641H18.9701Z" fill="white"/>
<path d="M3.96807 26.6461H2.36914V5.92439H3.87723V9.3714H3.91357C4.82205 6.67718 6.01519 5.33008 7.493 5.33008C7.91695 5.33008 8.35909 5.3697 8.81938 5.44894V9.05443H7.493C6.97213 9.05443 6.49366 9.23933 6.05759 9.60912C5.63363 9.97892 5.26418 10.4808 4.94924 11.1147C4.64641 11.7486 4.40415 12.5014 4.22245 13.3731C4.05287 14.2448 3.96807 15.1824 3.96807 16.1862V26.6461Z" fill="white"/>
</svg>
