<svg width="177" height="301" viewBox="0 0 177 301" fill="none" xmlns="http://www.w3.org/2000/svg">
<path d="M8.97564 94.7089C10.4117 31.5696 36.2617 0 86.5253 0C95.142 0 103.519 1.45147 111.657 4.35443C120.034 7.25739 127.574 11.9747 134.276 18.5063C140.978 24.6751 146.363 32.8397 150.432 43C154.501 53.1603 156.535 65.3165 156.535 79.4684V243.304C156.535 254.553 159.886 260.177 166.588 260.177C167.785 260.177 169.221 259.996 170.897 259.633C172.811 259.27 174.846 258.726 177 258V292.835C174.128 294.65 171.136 295.92 168.024 296.646C165.152 297.734 162.16 298.278 159.049 298.278C148.278 298.278 140.26 294.831 134.994 287.937C129.968 281.042 127.215 269.975 126.736 254.734C108.785 285.578 86.1663 301 58.8803 301C50.503 301 42.7241 299.004 35.5436 295.013C28.3631 291.384 22.14 286.122 16.8742 279.228C11.6085 271.97 7.41987 263.262 4.30831 253.101C1.4361 242.941 0 231.511 0 218.81C0 193.772 4.66732 173.633 14.002 158.392C23.3367 142.789 36.9797 133.354 54.931 130.089L110.58 119.747C120.633 118.295 125.659 107.046 125.659 86C125.659 55.1561 110.939 39.7342 81.499 39.7342C68.0953 39.7342 57.9229 44.0886 50.9817 52.7975C44.0406 61.5063 39.8519 75.4768 38.4158 94.7089H8.97564ZM124.582 147.506C122.428 150.772 117.761 153.857 110.58 156.76C107.229 157.848 102.323 159.118 95.86 160.57C89.6369 162.021 81.858 163.654 72.5233 165.468C58.641 168.371 48.4685 173.633 42.0061 181.253C35.5436 188.873 32.3124 199.034 32.3124 211.734C32.3124 227.338 34.9452 239.494 40.2109 248.203C45.716 256.911 54.572 261.266 66.7789 261.266C73.002 261.266 79.4645 259.814 86.1663 256.911C93.1075 253.646 99.3306 249.291 104.836 243.848C110.58 238.042 115.247 230.966 118.838 222.62C122.667 214.274 124.582 204.84 124.582 194.316V147.506Z" fill="black"/>
</svg>
