<svg width="310" height="153" viewBox="0 0 310 153" fill="none" xmlns="http://www.w3.org/2000/svg">
<path d="M310 153H253.34V0H310V153ZM0 0H57.3109V58.8011H87.9202C128.733 58.8011 159.776 62.7992 181.05 70.7954C202.759 78.5966 213.613 89.8107 213.613 104.438C213.613 112.239 210.14 119.163 203.193 125.208C196.681 131.254 187.78 136.325 176.492 140.421C165.203 144.516 151.744 147.637 136.114 149.782C120.917 151.927 104.853 153 87.9202 153H0V0ZM57.3109 132.522H82.0589C105.938 132.522 123.957 130.084 136.114 125.208C148.27 120.138 154.349 113.409 154.349 105.023C154.349 96.6367 148.053 90.2983 135.462 86.0076C122.871 81.522 102.682 79.2792 74.895 79.2792H57.3109V132.522Z" fill="black"/>
</svg>
