<svg width="1284" height="166" viewBox="0 0 1284 166" fill="none" xmlns="http://www.w3.org/2000/svg">
<path d="M1244.51 162.446V81.1119H1243.17L1126.95 152.001V162.446H1087.46V46.4449H1126.95V126.668H1128.29L1244.51 56.445V46.4449H1284V162.446H1244.51ZM1139.96 0C1144.75 11.7038 1160 17.5557 1185.73 17.5557C1211.46 17.5557 1226.71 11.7038 1231.5 0H1253.49C1251.09 20.1483 1228.51 30.2225 1185.73 30.2225C1142.95 30.2225 1120.36 20.1483 1117.97 0H1139.96Z" fill="black"/>
<path d="M1023.46 162.442H984.424V46.2188H1023.46V162.442ZM809.87 46.2188H849.358V90.8858H870.448C898.568 90.8858 919.957 93.9229 934.616 99.997C949.573 105.923 957.052 114.442 957.052 125.553C957.052 131.479 954.659 136.738 949.872 141.331C945.385 145.923 939.253 149.775 931.475 152.886C923.697 155.998 914.423 158.368 903.654 159.998C893.183 161.627 882.115 162.442 870.448 162.442H809.87V46.2188ZM849.358 146.886H866.41C882.863 146.886 895.278 145.034 903.654 141.331C912.03 137.479 916.218 132.368 916.218 125.997C916.218 119.627 911.88 114.812 903.205 111.553C894.53 108.145 880.619 106.442 861.474 106.442H849.358V146.886Z" fill="black"/>
<path d="M701.911 162.442V62.8856H631.461C627.572 101.553 617.251 128.368 600.499 143.331C583.746 157.998 559.066 164.664 526.459 163.331V144.886C552.186 145.775 569.836 138.071 579.409 121.775C588.981 105.479 595.114 80.2931 597.806 46.2188H741.398V162.442H701.911Z" fill="black"/>
<path d="M490.733 126.001C488.041 132.075 483.554 137.63 477.272 142.667C470.989 147.556 463.062 151.779 453.489 155.334C444.215 158.742 433.596 161.334 421.63 163.112C409.664 165.038 396.8 166.001 383.039 166.001C365.09 166.001 349.086 164.519 335.026 161.556C321.265 158.593 309.598 154.519 300.025 149.334C290.751 144.149 283.572 138.001 278.486 130.889C273.7 123.63 271.307 115.852 271.307 107.556C271.307 98.2225 273.55 89.6299 278.038 81.7779C282.824 73.926 290.004 67.1111 299.576 61.3333C309.448 55.5555 321.713 51.0369 336.372 47.7776C351.03 44.5183 368.381 42.8887 388.424 42.8887C407.869 42.8887 424.322 44.7405 437.784 48.4443C451.246 52.148 462.015 57.111 470.092 63.3333C478.468 69.5556 484.451 76.8149 488.041 85.1113C491.93 93.2595 493.874 101.778 493.874 110.667H313.487C313.487 122.815 319.47 132.223 331.436 138.89C343.701 145.556 361.949 148.89 386.18 148.89C393.36 148.89 400.54 148.371 407.719 147.334C415.198 146.149 421.929 144.519 427.912 142.445C434.194 140.371 439.429 138.001 443.617 135.334C447.805 132.519 450.348 129.408 451.246 126.001H490.733ZM453.04 95.1114C450.647 84.0002 444.066 75.4816 433.296 69.5556C422.527 63.4815 405.775 60.4444 383.039 60.4444C372.569 60.4444 362.996 61.4074 354.321 63.3333C345.945 65.1111 338.765 67.5556 332.782 70.6667C326.799 73.7778 322.013 77.4816 318.423 81.7779C315.132 85.9261 313.487 90.3706 313.487 95.1114H453.04Z" fill="black"/>
<path d="M204.17 0C204.469 0.444443 204.619 0.962964 204.619 1.55556C204.619 2.14816 204.619 2.81483 204.619 3.55558C204.619 10.8149 200.281 15.9261 191.606 18.8891C189.512 19.6298 186.67 20.3706 183.08 21.1113C179.789 21.7039 174.704 22.4446 167.823 23.3335C161.242 24.2224 152.268 25.2595 140.9 26.4447C129.831 27.6299 115.472 29.1114 97.8222 30.8892C85.2578 32.0744 74.9371 33.9262 66.8601 36.4448C59.0822 38.9633 52.8 42.1485 48.0136 46.0004C43.2272 49.7042 39.4878 54.0746 36.7955 59.1116C34.4023 64.0006 32.4578 69.4821 30.9621 75.5562L31.8595 75.7785C40.834 67.4821 52.6505 61.3339 67.3088 57.3339C81.9672 53.1857 98.2709 51.1116 116.22 51.1116C131.776 51.1116 145.836 52.6671 158.4 55.7783C171.264 58.7413 182.183 62.8154 191.157 68.0006C200.132 73.1859 207.012 79.1859 211.798 86.0008C216.585 92.8157 218.978 100.001 218.978 107.557C218.978 115.408 216.435 122.89 211.35 130.001C206.264 136.964 198.935 143.112 189.362 148.446C180.089 153.631 168.721 157.779 155.259 160.89C141.797 164.002 126.84 165.557 110.386 165.557C74.1893 165.557 46.6674 159.335 27.821 146.89C9.27366 134.446 0 116.297 0 92.4453C0 82.6674 1.1966 73.4081 3.5898 64.6673C5.98301 55.7783 10.4703 47.8523 17.0516 40.8893C23.932 33.9262 33.3553 28.0003 45.3213 23.1113C57.2873 18.2224 72.8431 14.8149 91.9887 12.889C106.348 11.4075 118.015 10.2223 126.989 9.33342C136.263 8.29636 143.443 7.55561 148.528 7.11116C153.614 6.51857 157.203 6.07412 159.298 5.77782C161.691 5.48153 163.336 5.25931 164.234 5.11116C167.823 4.22226 169.917 2.51854 170.516 0H204.17ZM178.593 107.779C178.593 102.445 177.097 97.4083 174.105 92.6675C171.413 87.7786 167.225 83.5563 161.541 80.0007C155.857 76.297 148.678 73.4081 140.002 71.334C131.626 69.1118 121.754 68.0006 110.386 68.0006C99.0188 68.0006 88.9972 69.1118 80.3219 71.334C71.9457 73.4081 64.9156 76.297 59.2318 80.0007C53.5479 83.5563 49.2102 87.7786 46.2187 92.6675C43.5264 97.4083 42.1802 102.445 42.1802 107.779C42.1802 113.26 43.5264 118.446 46.2187 123.334C48.9111 128.223 53.0992 132.594 58.783 136.446C64.4669 140.149 71.4969 143.112 79.8731 145.335C88.5485 147.557 98.7196 148.668 110.386 148.668C122.053 148.668 132.075 147.557 140.451 145.335C149.126 143.112 156.306 140.149 161.99 136.446C167.674 132.594 171.862 128.223 174.554 123.334C177.247 118.297 178.593 113.112 178.593 107.779Z" fill="black"/>
</svg>
